<?xml version="1.0" encoding="UTF-8" ?>
<svg version="1.1" width="16" height="16" xmlns="http://www.w3.org/2000/svg" shape-rendering="crispEdges">
<rect x="0" y="0" width="16" height="1" fill="#252446" />
<rect x="0" y="1" width="1" height="15" fill="#252446" />
<rect x="1" y="1" width="14" height="2" fill="#201533" />
<rect x="15" y="1" width="1" height="15" fill="#252446" />
<rect x="1" y="3" width="1" height="12" fill="#201533" />
<rect x="2" y="3" width="6" height="1" fill="#FFFFFF" />
<rect x="8" y="3" width="1" height="3" fill="#201533" />
<rect x="9" y="3" width="3" height="1" fill="#0098DB" />
<rect x="12" y="3" width="3" height="3" fill="#201533" />
<rect x="2" y="4" width="6" height="1" fill="#201533" />
<rect x="9" y="4" width="1" height="1" fill="#203562" />
<rect x="10" y="4" width="1" height="1" fill="#1E579C" />
<rect x="11" y="4" width="1" height="1" fill="#203562" />
<rect x="2" y="5" width="5" height="1" fill="#FFFFFF" />
<rect x="7" y="5" width="1" height="2" fill="#201533" />
<rect x="9" y="5" width="3" height="1" fill="#0098DB" />
<rect x="2" y="6" width="5" height="1" fill="#201533" />
<rect x="8" y="6" width="1" height="1" fill="#0098DB" />
<rect x="9" y="6" width="1" height="5" fill="#FFFFFF" />
<rect x="10" y="6" width="1" height="3" fill="#203562" />
<rect x="11" y="6" width="1" height="2" fill="#FFFFFF" />
<rect x="12" y="6" width="1" height="1" fill="#0098DB" />
<rect x="13" y="6" width="2" height="1" fill="#201533" />
<rect x="2" y="7" width="4" height="1" fill="#FFFFFF" />
<rect x="6" y="7" width="1" height="4" fill="#201533" />
<rect x="7" y="7" width="1" height="3" fill="#0098DB" />
<rect x="8" y="7" width="1" height="3" fill="#FFFFFF" />
<rect x="12" y="7" width="1" height="3" fill="#FFFFFF" />
<rect x="13" y="7" width="1" height="3" fill="#0098DB" />
<rect x="14" y="7" width="1" height="8" fill="#201533" />
<rect x="2" y="8" width="4" height="1" fill="#201533" />
<rect x="11" y="8" width="1" height="1" fill="#203562" />
<rect x="2" y="9" width="4" height="1" fill="#FFFFFF" />
<rect x="10" y="9" width="2" height="2" fill="#FFFFFF" />
<rect x="2" y="10" width="4" height="1" fill="#201533" />
<rect x="7" y="10" width="1" height="1" fill="#1E579C" />
<rect x="8" y="10" width="1" height="1" fill="#0098DB" />
<rect x="12" y="10" width="1" height="1" fill="#0098DB" />
<rect x="13" y="10" width="1" height="1" fill="#1E579C" />
<rect x="2" y="11" width="5" height="1" fill="#FFFFFF" />
<rect x="7" y="11" width="1" height="4" fill="#201533" />
<rect x="8" y="11" width="1" height="1" fill="#1E579C" />
<rect x="9" y="11" width="3" height="1" fill="#0098DB" />
<rect x="12" y="11" width="1" height="1" fill="#1E579C" />
<rect x="13" y="11" width="1" height="4" fill="#201533" />
<rect x="2" y="12" width="5" height="3" fill="#201533" />
<rect x="8" y="12" width="1" height="3" fill="#201533" />
<rect x="9" y="12" width="3" height="1" fill="#1E579C" />
<rect x="12" y="12" width="1" height="3" fill="#201533" />
<rect x="9" y="13" width="3" height="2" fill="#201533" />
<rect x="1" y="15" width="14" height="1" fill="#252446" />
</svg>