<?xml version="1.0" encoding="UTF-8" ?>
<svg version="1.1" width="16" height="16" xmlns="http://www.w3.org/2000/svg" shape-rendering="crispEdges">
<rect x="0" y="0" width="16" height="1" fill="#252446" />
<rect x="0" y="1" width="1" height="15" fill="#252446" />
<rect x="1" y="1" width="14" height="1" fill="#201533" />
<rect x="15" y="1" width="1" height="15" fill="#252446" />
<rect x="1" y="2" width="5" height="2" fill="#201533" />
<rect x="6" y="2" width="1" height="1" fill="#FFFFFF" />
<rect x="7" y="2" width="8" height="1" fill="#201533" />
<rect x="6" y="3" width="1" height="1" fill="#201533" />
<rect x="7" y="3" width="3" height="1" fill="#FFFFFF" />
<rect x="10" y="3" width="1" height="1" fill="#201533" />
<rect x="11" y="3" width="1" height="1" fill="#FFFFFF" />
<rect x="12" y="3" width="3" height="1" fill="#201533" />
<rect x="1" y="4" width="1" height="11" fill="#201533" />
<rect x="2" y="4" width="1" height="1" fill="#FFFFFF" />
<rect x="3" y="4" width="2" height="1" fill="#201533" />
<rect x="5" y="4" width="3" height="1" fill="#FFFFFF" />
<rect x="8" y="4" width="2" height="1" fill="#203562" />
<rect x="10" y="4" width="2" height="1" fill="#1E579C" />
<rect x="12" y="4" width="1" height="1" fill="#FFFFFF" />
<rect x="13" y="4" width="2" height="2" fill="#201533" />
<rect x="2" y="5" width="2" height="1" fill="#201533" />
<rect x="4" y="5" width="2" height="1" fill="#FFFFFF" />
<rect x="6" y="5" width="3" height="4" fill="#201533" />
<rect x="9" y="5" width="2" height="1" fill="#203562" />
<rect x="11" y="5" width="2" height="2" fill="#0098DB" />
<rect x="2" y="6" width="1" height="4" fill="#201533" />
<rect x="3" y="6" width="1" height="1" fill="#FFFFFF" />
<rect x="4" y="6" width="2" height="5" fill="#201533" />
<rect x="9" y="6" width="1" height="2" fill="#201533" />
<rect x="10" y="6" width="1" height="1" fill="#1E579C" />
<rect x="13" y="6" width="1" height="2" fill="#FFFFFF" />
<rect x="14" y="6" width="1" height="9" fill="#201533" />
<rect x="3" y="7" width="1" height="4" fill="#201533" />
<rect x="10" y="7" width="1" height="2" fill="#0098DB" />
<rect x="11" y="7" width="1" height="4" fill="#0CE6F2" />
<rect x="12" y="7" width="1" height="1" fill="#0098DB" />
<rect x="9" y="8" width="1" height="1" fill="#1E579C" />
<rect x="12" y="8" width="1" height="1" fill="#0CE6F2" />
<rect x="13" y="8" width="1" height="7" fill="#201533" />
<rect x="6" y="9" width="2" height="1" fill="#201533" />
<rect x="8" y="9" width="1" height="1" fill="#1E579C" />
<rect x="9" y="9" width="1" height="1" fill="#0098DB" />
<rect x="10" y="9" width="1" height="3" fill="#0CE6F2" />
<rect x="12" y="9" width="1" height="1" fill="#FFFFFF" />
<rect x="2" y="10" width="1" height="2" fill="#203562" />
<rect x="6" y="10" width="1" height="1" fill="#201533" />
<rect x="7" y="10" width="1" height="1" fill="#1E579C" />
<rect x="8" y="10" width="1" height="1" fill="#0098DB" />
<rect x="9" y="10" width="1" height="3" fill="#0CE6F2" />
<rect x="12" y="10" width="1" height="5" fill="#201533" />
<rect x="3" y="11" width="3" height="1" fill="#1E579C" />
<rect x="6" y="11" width="2" height="1" fill="#0098DB" />
<rect x="8" y="11" width="1" height="2" fill="#0CE6F2" />
<rect x="11" y="11" width="1" height="4" fill="#201533" />
<rect x="2" y="12" width="1" height="3" fill="#201533" />
<rect x="3" y="12" width="1" height="1" fill="#1E579C" />
<rect x="4" y="12" width="2" height="2" fill="#0098DB" />
<rect x="6" y="12" width="2" height="1" fill="#0CE6F2" />
<rect x="10" y="12" width="1" height="3" fill="#201533" />
<rect x="3" y="13" width="1" height="2" fill="#201533" />
<rect x="6" y="13" width="1" height="1" fill="#0098DB" />
<rect x="7" y="13" width="1" height="1" fill="#0CE6F2" />
<rect x="8" y="13" width="2" height="2" fill="#201533" />
<rect x="4" y="14" width="4" height="1" fill="#201533" />
<rect x="1" y="15" width="14" height="1" fill="#252446" />
</svg>