<?xml version="1.0" encoding="UTF-8" ?>
<svg version="1.1" width="96" height="32" xmlns="http://www.w3.org/2000/svg" shape-rendering="crispEdges">
<rect x="24" y="1" width="4" height="1" fill="#B52603" />
<rect x="38" y="1" width="6" height="1" fill="#B52603" />
<rect x="54" y="1" width="2" height="1" fill="#B52603" />
<rect x="6" y="2" width="6" height="1" fill="#B52603" />
<rect x="22" y="2" width="2" height="1" fill="#B52603" />
<rect x="24" y="2" width="1" height="1" fill="#DB0007" />
<rect x="25" y="2" width="1" height="3" fill="#FF0048" />
<rect x="26" y="2" width="4" height="1" fill="#B52603" />
<rect x="36" y="2" width="4" height="1" fill="#FF0048" />
<rect x="40" y="2" width="1" height="1" fill="#DB0007" />
<rect x="41" y="2" width="1" height="3" fill="#FF0048" />
<rect x="42" y="2" width="4" height="1" fill="#B52603" />
<rect x="52" y="2" width="4" height="1" fill="#FF0048" />
<rect x="56" y="2" width="4" height="1" fill="#B52603" />
<rect x="70" y="2" width="6" height="1" fill="#B52603" />
<rect x="86" y="2" width="6" height="1" fill="#DB0007" />
<rect x="4" y="3" width="4" height="1" fill="#FF0048" />
<rect x="8" y="3" width="1" height="1" fill="#DB0007" />
<rect x="9" y="3" width="1" height="3" fill="#FF0048" />
<rect x="10" y="3" width="4" height="1" fill="#B52603" />
<rect x="20" y="3" width="5" height="1" fill="#FF0048" />
<rect x="26" y="3" width="2" height="1" fill="#FF0048" />
<rect x="28" y="3" width="3" height="1" fill="#B52603" />
<rect x="34" y="3" width="4" height="2" fill="#FF0048" />
<rect x="38" y="3" width="2" height="1" fill="#DB0007" />
<rect x="40" y="3" width="1" height="4" fill="#FF0048" />
<rect x="42" y="3" width="2" height="1" fill="#FF0048" />
<rect x="44" y="3" width="3" height="1" fill="#B52603" />
<rect x="50" y="3" width="4" height="2" fill="#FF0048" />
<rect x="54" y="3" width="1" height="1" fill="#DB0007" />
<rect x="55" y="3" width="1" height="1" fill="#FF0048" />
<rect x="56" y="3" width="1" height="1" fill="#DB0007" />
<rect x="57" y="3" width="1" height="3" fill="#FF0048" />
<rect x="58" y="3" width="4" height="1" fill="#B52603" />
<rect x="68" y="3" width="4" height="1" fill="#FF0048" />
<rect x="72" y="3" width="1" height="1" fill="#DB0007" />
<rect x="73" y="3" width="1" height="3" fill="#FF0048" />
<rect x="74" y="3" width="4" height="1" fill="#B52603" />
<rect x="84" y="3" width="4" height="1" fill="#732F0D" />
<rect x="88" y="3" width="1" height="1" fill="#B52603" />
<rect x="89" y="3" width="1" height="3" fill="#732F0D" />
<rect x="90" y="3" width="4" height="1" fill="#DB0007" />
<rect x="2" y="4" width="4" height="2" fill="#FF0048" />
<rect x="6" y="4" width="2" height="1" fill="#DB0007" />
<rect x="8" y="4" width="1" height="4" fill="#FF0048" />
<rect x="10" y="4" width="2" height="1" fill="#FF0048" />
<rect x="12" y="4" width="3" height="1" fill="#B52603" />
<rect x="18" y="4" width="4" height="2" fill="#FF0048" />
<rect x="22" y="4" width="2" height="1" fill="#DB0007" />
<rect x="24" y="4" width="1" height="4" fill="#FF0048" />
<rect x="26" y="4" width="1" height="1" fill="#DB0007" />
<rect x="27" y="4" width="2" height="1" fill="#FF0048" />
<rect x="29" y="4" width="3" height="1" fill="#B52603" />
<rect x="33" y="4" width="1" height="4" fill="#FF0048" />
<rect x="38" y="4" width="2" height="1" fill="#FF0048" />
<rect x="42" y="4" width="1" height="1" fill="#DB0007" />
<rect x="43" y="4" width="2" height="1" fill="#FF0048" />
<rect x="45" y="4" width="3" height="1" fill="#B52603" />
<rect x="49" y="4" width="1" height="4" fill="#FF0048" />
<rect x="54" y="4" width="1" height="1" fill="#FF0048" />
<rect x="55" y="4" width="1" height="1" fill="#DB0007" />
<rect x="56" y="4" width="1" height="4" fill="#FF0048" />
<rect x="58" y="4" width="2" height="1" fill="#FF0048" />
<rect x="60" y="4" width="3" height="1" fill="#B52603" />
<rect x="66" y="4" width="4" height="2" fill="#FF0048" />
<rect x="70" y="4" width="2" height="1" fill="#DB0007" />
<rect x="72" y="4" width="1" height="4" fill="#FF0048" />
<rect x="74" y="4" width="2" height="1" fill="#FF0048" />
<rect x="76" y="4" width="3" height="1" fill="#B52603" />
<rect x="82" y="4" width="4" height="2" fill="#732F0D" />
<rect x="86" y="4" width="2" height="1" fill="#B52603" />
<rect x="88" y="4" width="1" height="4" fill="#732F0D" />
<rect x="90" y="4" width="2" height="1" fill="#732F0D" />
<rect x="92" y="4" width="3" height="1" fill="#DB0007" />
<rect x="1" y="5" width="1" height="4" fill="#FF0048" />
<rect x="6" y="5" width="2" height="1" fill="#FF0048" />
<rect x="10" y="5" width="1" height="1" fill="#DB0007" />
<rect x="11" y="5" width="2" height="1" fill="#FF0048" />
<rect x="13" y="5" width="3" height="1" fill="#B52603" />
<rect x="17" y="5" width="1" height="4" fill="#FF0048" />
<rect x="22" y="5" width="2" height="1" fill="#FF0048" />
<rect x="25" y="5" width="1" height="1" fill="#DB0007" />
<rect x="26" y="5" width="2" height="4" fill="#FF0048" />
<rect x="28" y="5" width="1" height="2" fill="#DB0007" />
<rect x="29" y="5" width="1" height="3" fill="#FF0048" />
<rect x="30" y="5" width="2" height="2" fill="#B52603" />
<rect x="32" y="5" width="1" height="3" fill="#FF0048" />
<rect x="34" y="5" width="1" height="1" fill="#FF0048" />
<rect x="35" y="5" width="2" height="1" fill="#DB0007" />
<rect x="37" y="5" width="1" height="3" fill="#FF0048" />
<rect x="38" y="5" width="2" height="1" fill="#DB0007" />
<rect x="41" y="5" width="1" height="1" fill="#DB0007" />
<rect x="42" y="5" width="2" height="4" fill="#FF0048" />
<rect x="44" y="5" width="1" height="2" fill="#DB0007" />
<rect x="45" y="5" width="1" height="3" fill="#FF0048" />
<rect x="46" y="5" width="2" height="2" fill="#B52603" />
<rect x="48" y="5" width="1" height="3" fill="#FF0048" />
<rect x="50" y="5" width="1" height="1" fill="#FF0048" />
<rect x="51" y="5" width="2" height="1" fill="#DB0007" />
<rect x="53" y="5" width="1" height="3" fill="#FF0048" />
<rect x="54" y="5" width="1" height="1" fill="#DB0007" />
<rect x="55" y="5" width="1" height="1" fill="#FF0048" />
<rect x="58" y="5" width="1" height="1" fill="#DB0007" />
<rect x="59" y="5" width="2" height="1" fill="#FF0048" />
<rect x="61" y="5" width="3" height="1" fill="#B52603" />
<rect x="65" y="5" width="1" height="4" fill="#FF0048" />
<rect x="70" y="5" width="2" height="1" fill="#FF0048" />
<rect x="74" y="5" width="1" height="1" fill="#DB0007" />
<rect x="75" y="5" width="2" height="1" fill="#FF0048" />
<rect x="77" y="5" width="3" height="1" fill="#B52603" />
<rect x="81" y="5" width="1" height="4" fill="#732F0D" />
<rect x="86" y="5" width="2" height="1" fill="#732F0D" />
<rect x="90" y="5" width="1" height="1" fill="#B52603" />
<rect x="91" y="5" width="2" height="1" fill="#732F0D" />
<rect x="93" y="5" width="3" height="1" fill="#DB0007" />
<rect x="0" y="6" width="1" height="3" fill="#FF0048" />
<rect x="2" y="6" width="1" height="1" fill="#FF0048" />
<rect x="3" y="6" width="2" height="1" fill="#DB0007" />
<rect x="5" y="6" width="1" height="3" fill="#FF0048" />
<rect x="6" y="6" width="2" height="1" fill="#DB0007" />
<rect x="9" y="6" width="1" height="1" fill="#DB0007" />
<rect x="10" y="6" width="2" height="4" fill="#FF0048" />
<rect x="12" y="6" width="1" height="2" fill="#DB0007" />
<rect x="13" y="6" width="1" height="3" fill="#FF0048" />
<rect x="14" y="6" width="2" height="2" fill="#B52603" />
<rect x="16" y="6" width="1" height="3" fill="#FF0048" />
<rect x="18" y="6" width="1" height="1" fill="#FF0048" />
<rect x="19" y="6" width="2" height="1" fill="#DB0007" />
<rect x="21" y="6" width="1" height="3" fill="#FF0048" />
<rect x="22" y="6" width="2" height="1" fill="#DB0007" />
<rect x="25" y="6" width="1" height="1" fill="#FF0048" />
<rect x="34" y="6" width="1" height="1" fill="#DB0007" />
<rect x="35" y="6" width="2" height="1" fill="#FF0048" />
<rect x="38" y="6" width="1" height="2" fill="#FF0048" />
<rect x="39" y="6" width="1" height="1" fill="#DB0007" />
<rect x="41" y="6" width="1" height="1" fill="#FF0048" />
<rect x="50" y="6" width="1" height="1" fill="#DB0007" />
<rect x="51" y="6" width="2" height="1" fill="#FF0048" />
<rect x="54" y="6" width="1" height="2" fill="#FF0048" />
<rect x="55" y="6" width="1" height="2" fill="#DB0007" />
<rect x="57" y="6" width="1" height="1" fill="#DB0007" />
<rect x="58" y="6" width="2" height="4" fill="#FF0048" />
<rect x="60" y="6" width="1" height="2" fill="#DB0007" />
<rect x="61" y="6" width="1" height="3" fill="#FF0048" />
<rect x="62" y="6" width="2" height="2" fill="#B52603" />
<rect x="64" y="6" width="1" height="3" fill="#FF0048" />
<rect x="66" y="6" width="1" height="1" fill="#FF0048" />
<rect x="67" y="6" width="2" height="1" fill="#DB0007" />
<rect x="69" y="6" width="1" height="3" fill="#FF0048" />
<rect x="70" y="6" width="2" height="1" fill="#DB0007" />
<rect x="73" y="6" width="1" height="1" fill="#DB0007" />
<rect x="74" y="6" width="2" height="4" fill="#FF0048" />
<rect x="76" y="6" width="1" height="2" fill="#DB0007" />
<rect x="77" y="6" width="1" height="3" fill="#FF0048" />
<rect x="78" y="6" width="2" height="2" fill="#B52603" />
<rect x="80" y="6" width="1" height="3" fill="#732F0D" />
<rect x="82" y="6" width="1" height="1" fill="#732F0D" />
<rect x="83" y="6" width="2" height="1" fill="#B52603" />
<rect x="85" y="6" width="1" height="3" fill="#732F0D" />
<rect x="86" y="6" width="2" height="1" fill="#B52603" />
<rect x="89" y="6" width="1" height="1" fill="#B52603" />
<rect x="90" y="6" width="2" height="4" fill="#732F0D" />
<rect x="92" y="6" width="1" height="2" fill="#B52603" />
<rect x="93" y="6" width="1" height="3" fill="#732F0D" />
<rect x="94" y="6" width="2" height="2" fill="#DB0007" />
<rect x="2" y="7" width="1" height="1" fill="#DB0007" />
<rect x="3" y="7" width="2" height="1" fill="#FF0048" />
<rect x="6" y="7" width="1" height="2" fill="#FF0048" />
<rect x="7" y="7" width="1" height="1" fill="#DB0007" />
<rect x="9" y="7" width="1" height="1" fill="#FF0048" />
<rect x="18" y="7" width="1" height="1" fill="#DB0007" />
<rect x="19" y="7" width="2" height="1" fill="#FF0048" />
<rect x="22" y="7" width="1" height="2" fill="#FF0048" />
<rect x="23" y="7" width="1" height="1" fill="#DB0007" />
<rect x="25" y="7" width="1" height="1" fill="#DB0007" />
<rect x="28" y="7" width="1" height="1" fill="#FF0048" />
<rect x="30" y="7" width="1" height="1" fill="#B52603" />
<rect x="34" y="7" width="2" height="2" fill="#FF0048" />
<rect x="36" y="7" width="1" height="1" fill="#DB0007" />
<rect x="39" y="7" width="1" height="3" fill="#FF0048" />
<rect x="40" y="7" width="2" height="1" fill="#DB0007" />
<rect x="44" y="7" width="1" height="1" fill="#FF0048" />
<rect x="46" y="7" width="1" height="1" fill="#B52603" />
<rect x="50" y="7" width="2" height="2" fill="#FF0048" />
<rect x="52" y="7" width="1" height="1" fill="#DB0007" />
<rect x="57" y="7" width="1" height="1" fill="#FF0048" />
<rect x="66" y="7" width="1" height="1" fill="#DB0007" />
<rect x="67" y="7" width="2" height="1" fill="#FF0048" />
<rect x="70" y="7" width="1" height="2" fill="#FF0048" />
<rect x="71" y="7" width="1" height="1" fill="#DB0007" />
<rect x="73" y="7" width="1" height="1" fill="#FF0048" />
<rect x="82" y="7" width="1" height="1" fill="#B52603" />
<rect x="83" y="7" width="2" height="1" fill="#732F0D" />
<rect x="86" y="7" width="1" height="2" fill="#732F0D" />
<rect x="87" y="7" width="1" height="1" fill="#B52603" />
<rect x="89" y="7" width="1" height="1" fill="#732F0D" />
<rect x="2" y="8" width="2" height="2" fill="#FF0048" />
<rect x="4" y="8" width="1" height="1" fill="#DB0007" />
<rect x="7" y="8" width="1" height="3" fill="#FF0048" />
<rect x="8" y="8" width="2" height="1" fill="#DB0007" />
<rect x="12" y="8" width="1" height="1" fill="#FF0048" />
<rect x="14" y="8" width="1" height="1" fill="#B52603" />
<rect x="18" y="8" width="2" height="2" fill="#FF0048" />
<rect x="20" y="8" width="1" height="1" fill="#DB0007" />
<rect x="23" y="8" width="1" height="3" fill="#FF0048" />
<rect x="24" y="8" width="1" height="1" fill="#DB0007" />
<rect x="25" y="8" width="1" height="2" fill="#FF0048" />
<rect x="28" y="8" width="1" height="1" fill="#DB0007" />
<rect x="29" y="8" width="1" height="1" fill="#B52603" />
<rect x="33" y="8" width="1" height="1" fill="#DB0007" />
<rect x="36" y="8" width="1" height="2" fill="#FF0048" />
<rect x="37" y="8" width="2" height="1" fill="#DB0007" />
<rect x="40" y="8" width="2" height="2" fill="#FF0048" />
<rect x="44" y="8" width="1" height="1" fill="#DB0007" />
<rect x="45" y="8" width="1" height="1" fill="#B52603" />
<rect x="49" y="8" width="1" height="1" fill="#DB0007" />
<rect x="52" y="8" width="1" height="2" fill="#FF0048" />
<rect x="53" y="8" width="2" height="1" fill="#DB0007" />
<rect x="55" y="8" width="1" height="2" fill="#FF0048" />
<rect x="56" y="8" width="2" height="1" fill="#DB0007" />
<rect x="60" y="8" width="1" height="1" fill="#FF0048" />
<rect x="62" y="8" width="1" height="1" fill="#B52603" />
<rect x="66" y="8" width="2" height="2" fill="#FF0048" />
<rect x="68" y="8" width="1" height="1" fill="#DB0007" />
<rect x="71" y="8" width="1" height="3" fill="#FF0048" />
<rect x="72" y="8" width="2" height="1" fill="#DB0007" />
<rect x="76" y="8" width="1" height="1" fill="#FF0048" />
<rect x="78" y="8" width="1" height="1" fill="#B52603" />
<rect x="82" y="8" width="2" height="2" fill="#732F0D" />
<rect x="84" y="8" width="1" height="1" fill="#B52603" />
<rect x="87" y="8" width="1" height="3" fill="#732F0D" />
<rect x="88" y="8" width="2" height="1" fill="#B52603" />
<rect x="92" y="8" width="1" height="1" fill="#732F0D" />
<rect x="94" y="8" width="1" height="1" fill="#DB0007" />
<rect x="1" y="9" width="1" height="1" fill="#DB0007" />
<rect x="4" y="9" width="1" height="2" fill="#FF0048" />
<rect x="5" y="9" width="2" height="1" fill="#DB0007" />
<rect x="8" y="9" width="2" height="2" fill="#FF0048" />
<rect x="12" y="9" width="1" height="1" fill="#DB0007" />
<rect x="13" y="9" width="1" height="1" fill="#B52603" />
<rect x="17" y="9" width="1" height="1" fill="#DB0007" />
<rect x="20" y="9" width="1" height="2" fill="#FF0048" />
<rect x="21" y="9" width="2" height="1" fill="#DB0007" />
<rect x="24" y="9" width="1" height="1" fill="#FF0048" />
<rect x="26" y="9" width="2" height="1" fill="#DB0007" />
<rect x="33" y="9" width="1" height="1" fill="#732F0D" />
<rect x="34" y="9" width="2" height="1" fill="#DB0007" />
<rect x="37" y="9" width="2" height="1" fill="#FF0048" />
<rect x="42" y="9" width="2" height="1" fill="#DB0007" />
<rect x="49" y="9" width="1" height="1" fill="#732F0D" />
<rect x="50" y="9" width="2" height="1" fill="#DB0007" />
<rect x="53" y="9" width="2" height="1" fill="#FF0048" />
<rect x="56" y="9" width="2" height="2" fill="#FF0048" />
<rect x="60" y="9" width="1" height="1" fill="#DB0007" />
<rect x="61" y="9" width="1" height="1" fill="#B52603" />
<rect x="65" y="9" width="1" height="1" fill="#DB0007" />
<rect x="68" y="9" width="1" height="2" fill="#FF0048" />
<rect x="69" y="9" width="2" height="1" fill="#DB0007" />
<rect x="72" y="9" width="2" height="2" fill="#FF0048" />
<rect x="76" y="9" width="1" height="1" fill="#DB0007" />
<rect x="77" y="9" width="1" height="1" fill="#B52603" />
<rect x="81" y="9" width="1" height="1" fill="#B52603" />
<rect x="84" y="9" width="1" height="2" fill="#732F0D" />
<rect x="85" y="9" width="2" height="1" fill="#B52603" />
<rect x="88" y="9" width="2" height="2" fill="#732F0D" />
<rect x="92" y="9" width="2" height="1" fill="#B52603" />
<rect x="1" y="10" width="1" height="1" fill="#732F0D" />
<rect x="2" y="10" width="2" height="1" fill="#DB0007" />
<rect x="5" y="10" width="2" height="1" fill="#FF0048" />
<rect x="10" y="10" width="2" height="1" fill="#DB0007" />
<rect x="17" y="10" width="1" height="1" fill="#732F0D" />
<rect x="18" y="10" width="2" height="1" fill="#DB0007" />
<rect x="21" y="10" width="2" height="1" fill="#FF0048" />
<rect x="24" y="10" width="2" height="1" fill="#DB0007" />
<rect x="33" y="10" width="1" height="3" fill="#B52603" />
<rect x="34" y="10" width="2" height="1" fill="#732F0D" />
<rect x="36" y="10" width="6" height="1" fill="#DB0007" />
<rect x="49" y="10" width="1" height="3" fill="#B52603" />
<rect x="50" y="10" width="2" height="1" fill="#732F0D" />
<rect x="52" y="10" width="4" height="1" fill="#DB0007" />
<rect x="58" y="10" width="2" height="1" fill="#DB0007" />
<rect x="65" y="10" width="1" height="1" fill="#732F0D" />
<rect x="66" y="10" width="2" height="1" fill="#DB0007" />
<rect x="69" y="10" width="2" height="1" fill="#FF0048" />
<rect x="74" y="10" width="2" height="1" fill="#DB0007" />
<rect x="81" y="10" width="1" height="1" fill="#FF0048" />
<rect x="82" y="10" width="2" height="1" fill="#B52603" />
<rect x="85" y="10" width="2" height="1" fill="#732F0D" />
<rect x="90" y="10" width="2" height="1" fill="#B52603" />
<rect x="1" y="11" width="1" height="3" fill="#B52603" />
<rect x="2" y="11" width="2" height="1" fill="#732F0D" />
<rect x="4" y="11" width="6" height="1" fill="#DB0007" />
<rect x="17" y="11" width="1" height="4" fill="#B52603" />
<rect x="18" y="11" width="2" height="1" fill="#732F0D" />
<rect x="20" y="11" width="4" height="1" fill="#DB0007" />
<rect x="34" y="11" width="1" height="3" fill="#B52603" />
<rect x="48" y="11" width="1" height="1" fill="#B52603" />
<rect x="50" y="11" width="1" height="2" fill="#B52603" />
<rect x="56" y="11" width="2" height="1" fill="#DB0007" />
<rect x="65" y="11" width="1" height="3" fill="#B52603" />
<rect x="66" y="11" width="2" height="1" fill="#732F0D" />
<rect x="68" y="11" width="6" height="1" fill="#DB0007" />
<rect x="81" y="11" width="1" height="3" fill="#DB0007" />
<rect x="82" y="11" width="2" height="1" fill="#FF0048" />
<rect x="84" y="11" width="6" height="1" fill="#B52603" />
<rect x="0" y="12" width="1" height="2" fill="#B52603" />
<rect x="2" y="12" width="1" height="1" fill="#B52603" />
<rect x="16" y="12" width="1" height="2" fill="#B52603" />
<rect x="18" y="12" width="1" height="2" fill="#B52603" />
<rect x="35" y="12" width="1" height="2" fill="#B52603" />
<rect x="51" y="12" width="1" height="1" fill="#B52603" />
<rect x="66" y="12" width="1" height="2" fill="#B52603" />
<rect x="80" y="12" width="1" height="2" fill="#DB0007" />
<rect x="82" y="12" width="1" height="1" fill="#DB0007" />
<rect x="64" y="13" width="1" height="1" fill="#B52603" />
<rect x="81" y="16" width="1" height="1" fill="#FFFFFF" />
<rect x="86" y="16" width="1" height="1" fill="#FFFFFF" />
<rect x="89" y="16" width="1" height="2" fill="#FFFFFF" />
<rect x="93" y="16" width="1" height="1" fill="#FFFFFF" />
<rect x="84" y="17" width="1" height="2" fill="#FFFFFF" />
<rect x="87" y="17" width="2" height="1" fill="#FFFFFF" />
<rect x="90" y="17" width="2" height="1" fill="#FFFFFF" />
<rect x="95" y="17" width="1" height="1" fill="#FFFFFF" />
<rect x="6" y="18" width="6" height="1" fill="#B52603" />
<rect x="23" y="18" width="4" height="1" fill="#B52603" />
<rect x="39" y="18" width="2" height="1" fill="#B52603" />
<rect x="41" y="18" width="1" height="1" fill="#FF0048" />
<rect x="56" y="18" width="2" height="1" fill="#FF0048" />
<rect x="72" y="18" width="3" height="2" fill="#FF0048" />
<rect x="80" y="18" width="1" height="1" fill="#FFFFFF" />
<rect x="82" y="18" width="2" height="1" fill="#FFFFFF" />
<rect x="85" y="18" width="3" height="1" fill="#FFFFFF" />
<rect x="88" y="18" width="3" height="2" fill="#FF0048" />
<rect x="91" y="18" width="3" height="1" fill="#FFFFFF" />
<rect x="4" y="19" width="4" height="1" fill="#FF0048" />
<rect x="8" y="19" width="1" height="1" fill="#DB0007" />
<rect x="9" y="19" width="1" height="3" fill="#FF0048" />
<rect x="10" y="19" width="4" height="1" fill="#B52603" />
<rect x="20" y="19" width="3" height="1" fill="#FF0048" />
<rect x="23" y="19" width="1" height="1" fill="#DB0007" />
<rect x="24" y="19" width="1" height="3" fill="#FF0048" />
<rect x="25" y="19" width="4" height="1" fill="#B52603" />
<rect x="36" y="19" width="2" height="1" fill="#FF0048" />
<rect x="38" y="19" width="1" height="1" fill="#DB0007" />
<rect x="39" y="19" width="1" height="3" fill="#FF0048" />
<rect x="40" y="19" width="3" height="1" fill="#B52603" />
<rect x="43" y="19" width="1" height="1" fill="#FF0048" />
<rect x="51" y="19" width="1" height="1" fill="#DB0007" />
<rect x="52" y="19" width="4" height="2" fill="#FF0048" />
<rect x="56" y="19" width="1" height="1" fill="#B52603" />
<rect x="57" y="19" width="3" height="1" fill="#FF0048" />
<rect x="67" y="19" width="1" height="1" fill="#DB0007" />
<rect x="68" y="19" width="3" height="2" fill="#FF0048" />
<rect x="71" y="19" width="1" height="1" fill="#DB0007" />
<rect x="75" y="19" width="2" height="2" fill="#FF0048" />
<rect x="81" y="19" width="2" height="1" fill="#FFFFFF" />
<rect x="83" y="19" width="1" height="1" fill="#DB0007" />
<rect x="84" y="19" width="3" height="2" fill="#FF0048" />
<rect x="87" y="19" width="1" height="1" fill="#DB0007" />
<rect x="91" y="19" width="2" height="2" fill="#FF0048" />
<rect x="93" y="19" width="2" height="1" fill="#FFFFFF" />
<rect x="2" y="20" width="4" height="2" fill="#FF0048" />
<rect x="6" y="20" width="2" height="1" fill="#DB0007" />
<rect x="8" y="20" width="1" height="4" fill="#FF0048" />
<rect x="10" y="20" width="2" height="1" fill="#FF0048" />
<rect x="12" y="20" width="3" height="1" fill="#B52603" />
<rect x="18" y="20" width="3" height="2" fill="#FF0048" />
<rect x="21" y="20" width="2" height="1" fill="#DB0007" />
<rect x="23" y="20" width="1" height="4" fill="#FF0048" />
<rect x="25" y="20" width="2" height="1" fill="#FF0048" />
<rect x="27" y="20" width="4" height="1" fill="#B52603" />
<rect x="34" y="20" width="3" height="2" fill="#FF0048" />
<rect x="37" y="20" width="1" height="1" fill="#DB0007" />
<rect x="38" y="20" width="1" height="4" fill="#FF0048" />
<rect x="40" y="20" width="2" height="1" fill="#FF0048" />
<rect x="42" y="20" width="2" height="1" fill="#B52603" />
<rect x="44" y="20" width="2" height="1" fill="#FF0048" />
<rect x="50" y="20" width="1" height="1" fill="#DB0007" />
<rect x="51" y="20" width="1" height="5" fill="#FF0048" />
<rect x="56" y="20" width="1" height="6" fill="#FF0048" />
<rect x="57" y="20" width="1" height="1" fill="#B52603" />
<rect x="58" y="20" width="1" height="1" fill="#FF0048" />
<rect x="59" y="20" width="1" height="1" fill="#DB0007" />
<rect x="60" y="20" width="2" height="1" fill="#FF0048" />
<rect x="66" y="20" width="1" height="1" fill="#DB0007" />
<rect x="67" y="20" width="1" height="5" fill="#FF0048" />
<rect x="71" y="20" width="1" height="6" fill="#FF0048" />
<rect x="72" y="20" width="1" height="6" fill="#DB0007" />
<rect x="73" y="20" width="1" height="3" fill="#FF0048" />
<rect x="74" y="20" width="1" height="1" fill="#DB0007" />
<rect x="77" y="20" width="1" height="4" fill="#FF0048" />
<rect x="80" y="20" width="2" height="1" fill="#FFFFFF" />
<rect x="82" y="20" width="1" height="1" fill="#DB0007" />
<rect x="83" y="20" width="1" height="5" fill="#FF0048" />
<rect x="87" y="20" width="1" height="6" fill="#FF0048" />
<rect x="88" y="20" width="1" height="6" fill="#DB0007" />
<rect x="89" y="20" width="1" height="3" fill="#FF0048" />
<rect x="90" y="20" width="1" height="1" fill="#DB0007" />
<rect x="93" y="20" width="1" height="4" fill="#FF0048" />
<rect x="94" y="20" width="2" height="1" fill="#FFFFFF" />
<rect x="1" y="21" width="1" height="4" fill="#FF0048" />
<rect x="6" y="21" width="2" height="1" fill="#FF0048" />
<rect x="10" y="21" width="1" height="1" fill="#DB0007" />
<rect x="11" y="21" width="2" height="1" fill="#FF0048" />
<rect x="13" y="21" width="3" height="1" fill="#B52603" />
<rect x="17" y="21" width="1" height="4" fill="#FF0048" />
<rect x="21" y="21" width="2" height="1" fill="#FF0048" />
<rect x="25" y="21" width="1" height="1" fill="#DB0007" />
<rect x="26" y="21" width="2" height="1" fill="#FF0048" />
<rect x="28" y="21" width="4" height="1" fill="#B52603" />
<rect x="33" y="21" width="1" height="4" fill="#FF0048" />
<rect x="37" y="21" width="1" height="1" fill="#FF0048" />
<rect x="40" y="21" width="1" height="1" fill="#DB0007" />
<rect x="41" y="21" width="2" height="1" fill="#FF0048" />
<rect x="43" y="21" width="3" height="1" fill="#B52603" />
<rect x="46" y="21" width="1" height="4" fill="#FF0048" />
<rect x="49" y="21" width="2" height="2" fill="#FF0048" />
<rect x="52" y="21" width="1" height="1" fill="#FF0048" />
<rect x="53" y="21" width="1" height="1" fill="#DB0007" />
<rect x="54" y="21" width="2" height="1" fill="#FF0048" />
<rect x="57" y="21" width="1" height="3" fill="#FF0048" />
<rect x="58" y="21" width="1" height="3" fill="#B52603" />
<rect x="59" y="21" width="1" height="5" fill="#FF0048" />
<rect x="60" y="21" width="2" height="1" fill="#DB0007" />
<rect x="62" y="21" width="1" height="3" fill="#FF0048" />
<rect x="65" y="21" width="2" height="2" fill="#FF0048" />
<rect x="68" y="21" width="1" height="1" fill="#DB0007" />
<rect x="69" y="21" width="2" height="1" fill="#FF0048" />
<rect x="74" y="21" width="1" height="2" fill="#FF0048" />
<rect x="75" y="21" width="2" height="1" fill="#DB0007" />
<rect x="78" y="21" width="1" height="1" fill="#FF0048" />
<rect x="80" y="21" width="1" height="6" fill="#FFFFFF" />
<rect x="81" y="21" width="2" height="2" fill="#FF0048" />
<rect x="84" y="21" width="1" height="1" fill="#DB0007" />
<rect x="85" y="21" width="2" height="1" fill="#FF0048" />
<rect x="90" y="21" width="1" height="2" fill="#FF0048" />
<rect x="91" y="21" width="2" height="1" fill="#DB0007" />
<rect x="94" y="21" width="1" height="1" fill="#FF0048" />
<rect x="95" y="21" width="1" height="6" fill="#FFFFFF" />
<rect x="0" y="22" width="1" height="3" fill="#FF0048" />
<rect x="2" y="22" width="1" height="1" fill="#FF0048" />
<rect x="3" y="22" width="2" height="1" fill="#DB0007" />
<rect x="5" y="22" width="1" height="3" fill="#FF0048" />
<rect x="6" y="22" width="2" height="1" fill="#DB0007" />
<rect x="9" y="22" width="1" height="1" fill="#DB0007" />
<rect x="10" y="22" width="2" height="4" fill="#FF0048" />
<rect x="12" y="22" width="1" height="2" fill="#DB0007" />
<rect x="13" y="22" width="1" height="3" fill="#FF0048" />
<rect x="14" y="22" width="2" height="2" fill="#B52603" />
<rect x="16" y="22" width="1" height="3" fill="#FF0048" />
<rect x="18" y="22" width="1" height="1" fill="#FF0048" />
<rect x="19" y="22" width="1" height="1" fill="#DB0007" />
<rect x="20" y="22" width="1" height="3" fill="#FF0048" />
<rect x="21" y="22" width="2" height="1" fill="#DB0007" />
<rect x="24" y="22" width="1" height="1" fill="#DB0007" />
<rect x="25" y="22" width="2" height="4" fill="#FF0048" />
<rect x="27" y="22" width="1" height="2" fill="#DB0007" />
<rect x="28" y="22" width="1" height="3" fill="#FF0048" />
<rect x="29" y="22" width="3" height="2" fill="#B52603" />
<rect x="34" y="22" width="1" height="1" fill="#FF0048" />
<rect x="35" y="22" width="1" height="1" fill="#DB0007" />
<rect x="36" y="22" width="1" height="3" fill="#FF0048" />
<rect x="37" y="22" width="1" height="1" fill="#DB0007" />
<rect x="39" y="22" width="1" height="1" fill="#DB0007" />
<rect x="40" y="22" width="2" height="4" fill="#FF0048" />
<rect x="42" y="22" width="1" height="2" fill="#DB0007" />
<rect x="43" y="22" width="1" height="3" fill="#FF0048" />
<rect x="44" y="22" width="2" height="3" fill="#B52603" />
<rect x="52" y="22" width="1" height="1" fill="#DB0007" />
<rect x="53" y="22" width="2" height="2" fill="#FF0048" />
<rect x="55" y="22" width="1" height="2" fill="#DB0007" />
<rect x="60" y="22" width="2" height="1" fill="#FF0048" />
<rect x="68" y="22" width="2" height="2" fill="#FF0048" />
<rect x="70" y="22" width="1" height="2" fill="#DB0007" />
<rect x="75" y="22" width="2" height="1" fill="#FF0048" />
<rect x="78" y="22" width="1" height="1" fill="#DB0007" />
<rect x="84" y="22" width="2" height="2" fill="#FF0048" />
<rect x="86" y="22" width="1" height="2" fill="#DB0007" />
<rect x="91" y="22" width="2" height="1" fill="#FF0048" />
<rect x="94" y="22" width="1" height="1" fill="#DB0007" />
<rect x="2" y="23" width="1" height="1" fill="#DB0007" />
<rect x="3" y="23" width="2" height="1" fill="#FF0048" />
<rect x="6" y="23" width="1" height="2" fill="#FF0048" />
<rect x="7" y="23" width="1" height="1" fill="#DB0007" />
<rect x="9" y="23" width="1" height="1" fill="#FF0048" />
<rect x="18" y="23" width="1" height="1" fill="#DB0007" />
<rect x="19" y="23" width="1" height="4" fill="#FF0048" />
<rect x="21" y="23" width="1" height="2" fill="#FF0048" />
<rect x="22" y="23" width="1" height="1" fill="#DB0007" />
<rect x="24" y="23" width="1" height="1" fill="#FF0048" />
<rect x="34" y="23" width="1" height="1" fill="#DB0007" />
<rect x="35" y="23" width="1" height="4" fill="#FF0048" />
<rect x="37" y="23" width="1" height="2" fill="#FF0048" />
<rect x="39" y="23" width="1" height="1" fill="#FF0048" />
<rect x="49" y="23" width="1" height="2" fill="#FF0048" />
<rect x="50" y="23" width="1" height="1" fill="#DB0007" />
<rect x="52" y="23" width="1" height="2" fill="#FF0048" />
<rect x="60" y="23" width="1" height="3" fill="#FF0048" />
<rect x="61" y="23" width="1" height="1" fill="#DB0007" />
<rect x="65" y="23" width="1" height="2" fill="#FF0048" />
<rect x="66" y="23" width="1" height="1" fill="#DB0007" />
<rect x="73" y="23" width="2" height="1" fill="#DB0007" />
<rect x="75" y="23" width="1" height="4" fill="#FF0048" />
<rect x="76" y="23" width="1" height="1" fill="#DB0007" />
<rect x="78" y="23" width="1" height="2" fill="#FF0048" />
<rect x="81" y="23" width="1" height="2" fill="#FF0048" />
<rect x="82" y="23" width="1" height="1" fill="#DB0007" />
<rect x="89" y="23" width="2" height="1" fill="#DB0007" />
<rect x="91" y="23" width="1" height="4" fill="#FF0048" />
<rect x="92" y="23" width="1" height="1" fill="#DB0007" />
<rect x="94" y="23" width="1" height="2" fill="#FF0048" />
<rect x="2" y="24" width="2" height="2" fill="#FF0048" />
<rect x="4" y="24" width="1" height="1" fill="#DB0007" />
<rect x="7" y="24" width="1" height="3" fill="#FF0048" />
<rect x="8" y="24" width="2" height="1" fill="#DB0007" />
<rect x="12" y="24" width="1" height="1" fill="#FF0048" />
<rect x="14" y="24" width="1" height="1" fill="#B52603" />
<rect x="18" y="24" width="1" height="2" fill="#FF0048" />
<rect x="22" y="24" width="1" height="3" fill="#FF0048" />
<rect x="23" y="24" width="2" height="1" fill="#DB0007" />
<rect x="27" y="24" width="1" height="1" fill="#FF0048" />
<rect x="29" y="24" width="2" height="1" fill="#B52603" />
<rect x="34" y="24" width="1" height="2" fill="#FF0048" />
<rect x="38" y="24" width="2" height="1" fill="#DB0007" />
<rect x="42" y="24" width="1" height="1" fill="#FF0048" />
<rect x="50" y="24" width="1" height="2" fill="#FF0048" />
<rect x="53" y="24" width="2" height="1" fill="#DB0007" />
<rect x="55" y="24" width="1" height="2" fill="#FF0048" />
<rect x="57" y="24" width="1" height="3" fill="#B52603" />
<rect x="58" y="24" width="1" height="1" fill="#FF0048" />
<rect x="61" y="24" width="1" height="2" fill="#FF0048" />
<rect x="62" y="24" width="1" height="1" fill="#DB0007" />
<rect x="66" y="24" width="1" height="2" fill="#FF0048" />
<rect x="68" y="24" width="2" height="1" fill="#DB0007" />
<rect x="70" y="24" width="1" height="2" fill="#FF0048" />
<rect x="73" y="24" width="1" height="2" fill="#FF0048" />
<rect x="74" y="24" width="1" height="1" fill="#DB0007" />
<rect x="76" y="24" width="1" height="2" fill="#FF0048" />
<rect x="77" y="24" width="1" height="1" fill="#DB0007" />
<rect x="82" y="24" width="1" height="2" fill="#FF0048" />
<rect x="84" y="24" width="2" height="1" fill="#DB0007" />
<rect x="86" y="24" width="1" height="2" fill="#FF0048" />
<rect x="89" y="24" width="1" height="2" fill="#FF0048" />
<rect x="90" y="24" width="1" height="1" fill="#DB0007" />
<rect x="92" y="24" width="1" height="2" fill="#FF0048" />
<rect x="93" y="24" width="1" height="1" fill="#DB0007" />
<rect x="1" y="25" width="1" height="1" fill="#DB0007" />
<rect x="4" y="25" width="1" height="2" fill="#FF0048" />
<rect x="5" y="25" width="2" height="1" fill="#DB0007" />
<rect x="8" y="25" width="2" height="2" fill="#FF0048" />
<rect x="12" y="25" width="1" height="1" fill="#DB0007" />
<rect x="13" y="25" width="1" height="1" fill="#B52603" />
<rect x="17" y="25" width="1" height="2" fill="#DB0007" />
<rect x="20" y="25" width="2" height="1" fill="#DB0007" />
<rect x="23" y="25" width="2" height="2" fill="#FF0048" />
<rect x="27" y="25" width="1" height="1" fill="#DB0007" />
<rect x="28" y="25" width="2" height="1" fill="#B52603" />
<rect x="33" y="25" width="1" height="1" fill="#DB0007" />
<rect x="36" y="25" width="2" height="1" fill="#DB0007" />
<rect x="38" y="25" width="2" height="2" fill="#FF0048" />
<rect x="42" y="25" width="1" height="1" fill="#DB0007" />
<rect x="43" y="25" width="2" height="1" fill="#B52603" />
<rect x="45" y="25" width="1" height="1" fill="#FF0048" />
<rect x="49" y="25" width="1" height="1" fill="#DB0007" />
<rect x="51" y="25" width="2" height="1" fill="#DB0007" />
<rect x="53" y="25" width="2" height="2" fill="#FF0048" />
<rect x="58" y="25" width="1" height="3" fill="#DB0007" />
<rect x="65" y="25" width="1" height="1" fill="#DB0007" />
<rect x="67" y="25" width="1" height="1" fill="#DB0007" />
<rect x="68" y="25" width="2" height="2" fill="#FF0048" />
<rect x="74" y="25" width="1" height="2" fill="#FF0048" />
<rect x="77" y="25" width="1" height="1" fill="#FF0048" />
<rect x="78" y="25" width="1" height="1" fill="#DB0007" />
<rect x="81" y="25" width="1" height="1" fill="#DB0007" />
<rect x="83" y="25" width="1" height="1" fill="#DB0007" />
<rect x="84" y="25" width="2" height="2" fill="#FF0048" />
<rect x="90" y="25" width="1" height="2" fill="#FF0048" />
<rect x="93" y="25" width="1" height="1" fill="#FF0048" />
<rect x="94" y="25" width="1" height="1" fill="#DB0007" />
<rect x="1" y="26" width="1" height="1" fill="#732F0D" />
<rect x="2" y="26" width="2" height="1" fill="#DB0007" />
<rect x="5" y="26" width="2" height="1" fill="#FF0048" />
<rect x="10" y="26" width="2" height="1" fill="#DB0007" />
<rect x="18" y="26" width="1" height="1" fill="#DB0007" />
<rect x="20" y="26" width="2" height="1" fill="#FF0048" />
<rect x="25" y="26" width="2" height="1" fill="#DB0007" />
<rect x="27" y="26" width="1" height="1" fill="#B52603" />
<rect x="34" y="26" width="1" height="1" fill="#DB0007" />
<rect x="36" y="26" width="2" height="1" fill="#FF0048" />
<rect x="40" y="26" width="2" height="1" fill="#DB0007" />
<rect x="42" y="26" width="2" height="1" fill="#B52603" />
<rect x="50" y="26" width="1" height="1" fill="#DB0007" />
<rect x="51" y="26" width="2" height="1" fill="#FF0048" />
<rect x="55" y="26" width="2" height="1" fill="#DB0007" />
<rect x="59" y="26" width="2" height="1" fill="#DB0007" />
<rect x="66" y="26" width="1" height="1" fill="#DB0007" />
<rect x="67" y="26" width="1" height="1" fill="#FF0048" />
<rect x="70" y="26" width="2" height="1" fill="#DB0007" />
<rect x="72" y="26" width="1" height="4" fill="#B52603" />
<rect x="73" y="26" width="1" height="1" fill="#DB0007" />
<rect x="76" y="26" width="2" height="1" fill="#DB0007" />
<rect x="81" y="26" width="1" height="2" fill="#FFFFFF" />
<rect x="82" y="26" width="1" height="1" fill="#DB0007" />
<rect x="83" y="26" width="1" height="1" fill="#FF0048" />
<rect x="86" y="26" width="2" height="1" fill="#DB0007" />
<rect x="88" y="26" width="1" height="4" fill="#B52603" />
<rect x="89" y="26" width="1" height="1" fill="#DB0007" />
<rect x="92" y="26" width="2" height="1" fill="#DB0007" />
<rect x="94" y="26" width="1" height="2" fill="#FFFFFF" />
<rect x="1" y="27" width="1" height="3" fill="#B52603" />
<rect x="2" y="27" width="2" height="1" fill="#732F0D" />
<rect x="4" y="27" width="6" height="1" fill="#DB0007" />
<rect x="19" y="27" width="6" height="1" fill="#DB0007" />
<rect x="35" y="27" width="5" height="1" fill="#DB0007" />
<rect x="51" y="27" width="4" height="1" fill="#DB0007" />
<rect x="55" y="27" width="2" height="1" fill="#B52603" />
<rect x="57" y="27" width="1" height="1" fill="#DB0007" />
<rect x="67" y="27" width="3" height="1" fill="#DB0007" />
<rect x="70" y="27" width="2" height="2" fill="#B52603" />
<rect x="73" y="27" width="1" height="2" fill="#B52603" />
<rect x="74" y="27" width="2" height="1" fill="#DB0007" />
<rect x="82" y="27" width="1" height="2" fill="#FFFFFF" />
<rect x="83" y="27" width="3" height="1" fill="#DB0007" />
<rect x="86" y="27" width="2" height="2" fill="#B52603" />
<rect x="89" y="27" width="1" height="2" fill="#B52603" />
<rect x="90" y="27" width="2" height="1" fill="#DB0007" />
<rect x="92" y="27" width="2" height="1" fill="#FFFFFF" />
<rect x="0" y="28" width="1" height="2" fill="#B52603" />
<rect x="2" y="28" width="1" height="1" fill="#B52603" />
<rect x="18" y="28" width="3" height="1" fill="#B52603" />
<rect x="36" y="28" width="3" height="1" fill="#B52603" />
<rect x="53" y="28" width="3" height="1" fill="#B52603" />
<rect x="80" y="28" width="1" height="1" fill="#FFFFFF" />
<rect x="83" y="28" width="3" height="1" fill="#FFFFFF" />
<rect x="90" y="28" width="3" height="1" fill="#FFFFFF" />
<rect x="95" y="28" width="1" height="1" fill="#FFFFFF" />
<rect x="18" y="29" width="2" height="1" fill="#B52603" />
<rect x="36" y="29" width="2" height="1" fill="#B52603" />
<rect x="53" y="29" width="2" height="1" fill="#B52603" />
<rect x="71" y="29" width="1" height="1" fill="#B52603" />
<rect x="85" y="29" width="2" height="1" fill="#FFFFFF" />
<rect x="87" y="29" width="1" height="1" fill="#B52603" />
<rect x="89" y="29" width="2" height="1" fill="#FFFFFF" />
<rect x="82" y="30" width="1" height="1" fill="#FFFFFF" />
<rect x="84" y="30" width="1" height="1" fill="#FFFFFF" />
<rect x="86" y="30" width="4" height="1" fill="#FFFFFF" />
<rect x="91" y="30" width="1" height="1" fill="#FFFFFF" />
<rect x="94" y="30" width="1" height="1" fill="#FFFFFF" />
</svg>