<?xml version="1.0" encoding="UTF-8" ?>
<svg version="1.1" width="64" height="64" xmlns="http://www.w3.org/2000/svg" shape-rendering="crispEdges">
<rect x="51" y="1" width="5" height="1" fill="#732F0D" />
<rect x="36" y="2" width="6" height="1" fill="#732F0D" />
<rect x="50" y="2" width="1" height="3" fill="#732F0D" />
<rect x="51" y="2" width="5" height="1" fill="#DB0007" />
<rect x="56" y="2" width="1" height="1" fill="#732F0D" />
<rect x="5" y="3" width="5" height="1" fill="#732F0D" />
<rect x="20" y="3" width="6" height="1" fill="#732F0D" />
<rect x="35" y="3" width="1" height="1" fill="#732F0D" />
<rect x="36" y="3" width="6" height="1" fill="#DB0007" />
<rect x="42" y="3" width="1" height="1" fill="#732F0D" />
<rect x="51" y="3" width="2" height="3" fill="#DB0007" />
<rect x="53" y="3" width="2" height="1" fill="#B52603" />
<rect x="55" y="3" width="2" height="1" fill="#DB0007" />
<rect x="57" y="3" width="1" height="1" fill="#732F0D" />
<rect x="3" y="4" width="2" height="1" fill="#732F0D" />
<rect x="5" y="4" width="5" height="1" fill="#DB0007" />
<rect x="10" y="4" width="2" height="1" fill="#732F0D" />
<rect x="19" y="4" width="1" height="1" fill="#732F0D" />
<rect x="20" y="4" width="6" height="1" fill="#DB0007" />
<rect x="26" y="4" width="1" height="1" fill="#732F0D" />
<rect x="34" y="4" width="1" height="1" fill="#732F0D" />
<rect x="35" y="4" width="4" height="1" fill="#DB0007" />
<rect x="39" y="4" width="5" height="1" fill="#B52603" />
<rect x="53" y="4" width="2" height="1" fill="#DB0007" />
<rect x="55" y="4" width="3" height="1" fill="#B52603" />
<rect x="58" y="4" width="4" height="1" fill="#732F0D" />
<rect x="2" y="5" width="1" height="1" fill="#732F0D" />
<rect x="3" y="5" width="4" height="1" fill="#DB0007" />
<rect x="7" y="5" width="5" height="1" fill="#B52603" />
<rect x="12" y="5" width="2" height="1" fill="#732F0D" />
<rect x="18" y="5" width="1" height="1" fill="#732F0D" />
<rect x="19" y="5" width="4" height="1" fill="#DB0007" />
<rect x="23" y="5" width="5" height="1" fill="#B52603" />
<rect x="33" y="5" width="1" height="1" fill="#732F0D" />
<rect x="34" y="5" width="3" height="1" fill="#DB0007" />
<rect x="37" y="5" width="2" height="1" fill="#B52603" />
<rect x="39" y="5" width="5" height="2" fill="#DB0007" />
<rect x="44" y="5" width="2" height="1" fill="#732F0D" />
<rect x="49" y="5" width="1" height="1" fill="#732F0D" />
<rect x="50" y="5" width="1" height="6" fill="#DB0007" />
<rect x="53" y="5" width="2" height="1" fill="#B52603" />
<rect x="55" y="5" width="7" height="2" fill="#DB0007" />
<rect x="62" y="5" width="1" height="2" fill="#732F0D" />
<rect x="1" y="6" width="1" height="1" fill="#732F0D" />
<rect x="2" y="6" width="3" height="1" fill="#DB0007" />
<rect x="5" y="6" width="2" height="1" fill="#B52603" />
<rect x="7" y="6" width="7" height="2" fill="#DB0007" />
<rect x="14" y="6" width="1" height="2" fill="#732F0D" />
<rect x="17" y="6" width="1" height="1" fill="#732F0D" />
<rect x="18" y="6" width="3" height="1" fill="#DB0007" />
<rect x="21" y="6" width="2" height="1" fill="#B52603" />
<rect x="23" y="6" width="5" height="2" fill="#DB0007" />
<rect x="28" y="6" width="2" height="1" fill="#732F0D" />
<rect x="32" y="6" width="1" height="6" fill="#732F0D" />
<rect x="33" y="6" width="3" height="3" fill="#DB0007" />
<rect x="36" y="6" width="1" height="1" fill="#B52603" />
<rect x="37" y="6" width="2" height="2" fill="#DB0007" />
<rect x="44" y="6" width="2" height="2" fill="#DB0007" />
<rect x="46" y="6" width="1" height="2" fill="#732F0D" />
<rect x="48" y="6" width="1" height="5" fill="#732F0D" />
<rect x="49" y="6" width="1" height="3" fill="#DB0007" />
<rect x="51" y="6" width="1" height="5" fill="#DB0007" />
<rect x="52" y="6" width="1" height="1" fill="#B52603" />
<rect x="53" y="6" width="2" height="2" fill="#DB0007" />
<rect x="0" y="7" width="1" height="5" fill="#732F0D" />
<rect x="1" y="7" width="3" height="3" fill="#DB0007" />
<rect x="4" y="7" width="1" height="1" fill="#B52603" />
<rect x="5" y="7" width="2" height="2" fill="#DB0007" />
<rect x="16" y="7" width="1" height="5" fill="#732F0D" />
<rect x="17" y="7" width="3" height="3" fill="#DB0007" />
<rect x="20" y="7" width="1" height="1" fill="#B52603" />
<rect x="21" y="7" width="2" height="2" fill="#DB0007" />
<rect x="28" y="7" width="2" height="2" fill="#DB0007" />
<rect x="30" y="7" width="1" height="2" fill="#732F0D" />
<rect x="36" y="7" width="1" height="6" fill="#DB0007" />
<rect x="39" y="7" width="1" height="1" fill="#DB0007" />
<rect x="40" y="7" width="1" height="1" fill="#B52603" />
<rect x="41" y="7" width="3" height="1" fill="#732F0D" />
<rect x="52" y="7" width="1" height="5" fill="#DB0007" />
<rect x="55" y="7" width="1" height="1" fill="#DB0007" />
<rect x="56" y="7" width="1" height="1" fill="#B52603" />
<rect x="57" y="7" width="5" height="1" fill="#732F0D" />
<rect x="4" y="8" width="1" height="5" fill="#DB0007" />
<rect x="7" y="8" width="1" height="1" fill="#DB0007" />
<rect x="8" y="8" width="1" height="1" fill="#B52603" />
<rect x="9" y="8" width="5" height="1" fill="#732F0D" />
<rect x="20" y="8" width="1" height="5" fill="#DB0007" />
<rect x="23" y="8" width="1" height="1" fill="#DB0007" />
<rect x="24" y="8" width="1" height="1" fill="#B52603" />
<rect x="25" y="8" width="3" height="1" fill="#732F0D" />
<rect x="37" y="8" width="1" height="1" fill="#DB0007" />
<rect x="38" y="8" width="2" height="1" fill="#B52603" />
<rect x="40" y="8" width="1" height="1" fill="#732F0D" />
<rect x="44" y="8" width="2" height="1" fill="#732F0D" />
<rect x="53" y="8" width="1" height="1" fill="#DB0007" />
<rect x="54" y="8" width="2" height="1" fill="#B52603" />
<rect x="56" y="8" width="1" height="1" fill="#732F0D" />
<rect x="5" y="9" width="1" height="1" fill="#DB0007" />
<rect x="6" y="9" width="2" height="1" fill="#B52603" />
<rect x="8" y="9" width="1" height="1" fill="#732F0D" />
<rect x="21" y="9" width="1" height="1" fill="#DB0007" />
<rect x="22" y="9" width="2" height="1" fill="#B52603" />
<rect x="24" y="9" width="1" height="1" fill="#732F0D" />
<rect x="28" y="9" width="2" height="1" fill="#732F0D" />
<rect x="33" y="9" width="1" height="3" fill="#B52603" />
<rect x="34" y="9" width="2" height="3" fill="#DB0007" />
<rect x="37" y="9" width="2" height="1" fill="#B52603" />
<rect x="39" y="9" width="1" height="2" fill="#732F0D" />
<rect x="49" y="9" width="1" height="2" fill="#B52603" />
<rect x="53" y="9" width="2" height="1" fill="#B52603" />
<rect x="55" y="9" width="1" height="2" fill="#732F0D" />
<rect x="1" y="10" width="1" height="2" fill="#B52603" />
<rect x="2" y="10" width="2" height="2" fill="#DB0007" />
<rect x="5" y="10" width="2" height="1" fill="#B52603" />
<rect x="7" y="10" width="1" height="1" fill="#732F0D" />
<rect x="17" y="10" width="1" height="2" fill="#B52603" />
<rect x="18" y="10" width="2" height="2" fill="#DB0007" />
<rect x="21" y="10" width="2" height="1" fill="#B52603" />
<rect x="23" y="10" width="1" height="1" fill="#732F0D" />
<rect x="37" y="10" width="1" height="3" fill="#DB0007" />
<rect x="38" y="10" width="1" height="1" fill="#B52603" />
<rect x="53" y="10" width="1" height="3" fill="#DB0007" />
<rect x="54" y="10" width="1" height="1" fill="#B52603" />
<rect x="57" y="10" width="2" height="1" fill="#732F0D" />
<rect x="5" y="11" width="2" height="2" fill="#DB0007" />
<rect x="7" y="11" width="1" height="1" fill="#B52603" />
<rect x="8" y="11" width="2" height="1" fill="#732F0D" />
<rect x="21" y="11" width="2" height="2" fill="#DB0007" />
<rect x="23" y="11" width="1" height="1" fill="#B52603" />
<rect x="24" y="11" width="2" height="1" fill="#732F0D" />
<rect x="38" y="11" width="1" height="3" fill="#DB0007" />
<rect x="39" y="11" width="1" height="1" fill="#B52603" />
<rect x="40" y="11" width="2" height="1" fill="#732F0D" />
<rect x="49" y="11" width="1" height="1" fill="#732F0D" />
<rect x="50" y="11" width="2" height="1" fill="#B52603" />
<rect x="54" y="11" width="1" height="3" fill="#DB0007" />
<rect x="55" y="11" width="1" height="1" fill="#B52603" />
<rect x="56" y="11" width="1" height="1" fill="#732F0D" />
<rect x="57" y="11" width="2" height="2" fill="#DB0007" />
<rect x="59" y="11" width="1" height="2" fill="#732F0D" />
<rect x="1" y="12" width="1" height="1" fill="#732F0D" />
<rect x="2" y="12" width="2" height="1" fill="#B52603" />
<rect x="7" y="12" width="3" height="2" fill="#DB0007" />
<rect x="10" y="12" width="1" height="2" fill="#732F0D" />
<rect x="17" y="12" width="1" height="1" fill="#732F0D" />
<rect x="18" y="12" width="2" height="1" fill="#B52603" />
<rect x="23" y="12" width="3" height="2" fill="#DB0007" />
<rect x="26" y="12" width="1" height="2" fill="#732F0D" />
<rect x="33" y="12" width="1" height="1" fill="#732F0D" />
<rect x="34" y="12" width="2" height="1" fill="#B52603" />
<rect x="39" y="12" width="3" height="2" fill="#DB0007" />
<rect x="42" y="12" width="1" height="2" fill="#732F0D" />
<rect x="50" y="12" width="2" height="1" fill="#732F0D" />
<rect x="52" y="12" width="1" height="1" fill="#B52603" />
<rect x="55" y="12" width="2" height="2" fill="#DB0007" />
<rect x="2" y="13" width="4" height="1" fill="#732F0D" />
<rect x="6" y="13" width="1" height="1" fill="#DB0007" />
<rect x="18" y="13" width="4" height="1" fill="#732F0D" />
<rect x="22" y="13" width="1" height="1" fill="#DB0007" />
<rect x="34" y="13" width="4" height="1" fill="#732F0D" />
<rect x="52" y="13" width="2" height="1" fill="#732F0D" />
<rect x="57" y="13" width="1" height="1" fill="#DB0007" />
<rect x="58" y="13" width="1" height="1" fill="#732F0D" />
<rect x="6" y="14" width="4" height="1" fill="#732F0D" />
<rect x="22" y="14" width="4" height="1" fill="#732F0D" />
<rect x="38" y="14" width="4" height="1" fill="#732F0D" />
<rect x="54" y="14" width="4" height="1" fill="#732F0D" />
<rect x="5" y="16" width="3" height="1" fill="#732F0D" />
<rect x="23" y="16" width="3" height="1" fill="#732F0D" />
<rect x="3" y="17" width="2" height="1" fill="#732F0D" />
<rect x="5" y="17" width="3" height="2" fill="#DB0007" />
<rect x="8" y="17" width="2" height="1" fill="#732F0D" />
<rect x="21" y="17" width="2" height="1" fill="#732F0D" />
<rect x="23" y="17" width="3" height="2" fill="#DB0007" />
<rect x="26" y="17" width="2" height="1" fill="#732F0D" />
<rect x="2" y="18" width="1" height="3" fill="#732F0D" />
<rect x="3" y="18" width="2" height="2" fill="#DB0007" />
<rect x="8" y="18" width="2" height="1" fill="#DB0007" />
<rect x="10" y="18" width="4" height="1" fill="#732F0D" />
<rect x="20" y="18" width="1" height="1" fill="#732F0D" />
<rect x="21" y="18" width="2" height="1" fill="#DB0007" />
<rect x="26" y="18" width="2" height="2" fill="#DB0007" />
<rect x="28" y="18" width="1" height="2" fill="#732F0D" />
<rect x="5" y="19" width="5" height="1" fill="#B52603" />
<rect x="10" y="19" width="4" height="2" fill="#DB0007" />
<rect x="14" y="19" width="1" height="2" fill="#732F0D" />
<rect x="19" y="19" width="1" height="1" fill="#732F0D" />
<rect x="20" y="19" width="2" height="1" fill="#DB0007" />
<rect x="22" y="19" width="1" height="1" fill="#B52603" />
<rect x="23" y="19" width="1" height="1" fill="#DB0007" />
<rect x="24" y="19" width="2" height="2" fill="#B52603" />
<rect x="37" y="19" width="3" height="1" fill="#732F0D" />
<rect x="53" y="19" width="4" height="1" fill="#732F0D" />
<rect x="3" y="20" width="1" height="7" fill="#DB0007" />
<rect x="4" y="20" width="3" height="1" fill="#B52603" />
<rect x="7" y="20" width="3" height="2" fill="#DB0007" />
<rect x="18" y="20" width="1" height="1" fill="#732F0D" />
<rect x="19" y="20" width="2" height="2" fill="#DB0007" />
<rect x="21" y="20" width="1" height="2" fill="#B52603" />
<rect x="22" y="20" width="1" height="1" fill="#DB0007" />
<rect x="23" y="20" width="1" height="1" fill="#B52603" />
<rect x="26" y="20" width="1" height="1" fill="#B52603" />
<rect x="27" y="20" width="1" height="1" fill="#732F0D" />
<rect x="35" y="20" width="2" height="1" fill="#732F0D" />
<rect x="37" y="20" width="3" height="1" fill="#DB0007" />
<rect x="40" y="20" width="1" height="1" fill="#732F0D" />
<rect x="51" y="20" width="2" height="1" fill="#732F0D" />
<rect x="53" y="20" width="4" height="1" fill="#DB0007" />
<rect x="57" y="20" width="1" height="1" fill="#732F0D" />
<rect x="1" y="21" width="1" height="1" fill="#732F0D" />
<rect x="2" y="21" width="1" height="6" fill="#DB0007" />
<rect x="4" y="21" width="1" height="1" fill="#DB0007" />
<rect x="5" y="21" width="1" height="1" fill="#B52603" />
<rect x="6" y="21" width="1" height="3" fill="#DB0007" />
<rect x="10" y="21" width="4" height="1" fill="#732F0D" />
<rect x="17" y="21" width="1" height="1" fill="#732F0D" />
<rect x="18" y="21" width="1" height="6" fill="#DB0007" />
<rect x="22" y="21" width="1" height="1" fill="#B52603" />
<rect x="23" y="21" width="5" height="2" fill="#DB0007" />
<rect x="28" y="21" width="2" height="1" fill="#732F0D" />
<rect x="34" y="21" width="1" height="1" fill="#732F0D" />
<rect x="35" y="21" width="3" height="1" fill="#DB0007" />
<rect x="38" y="21" width="3" height="1" fill="#B52603" />
<rect x="41" y="21" width="2" height="1" fill="#732F0D" />
<rect x="50" y="21" width="1" height="1" fill="#732F0D" />
<rect x="51" y="21" width="3" height="1" fill="#DB0007" />
<rect x="54" y="21" width="4" height="1" fill="#B52603" />
<rect x="58" y="21" width="2" height="1" fill="#732F0D" />
<rect x="0" y="22" width="1" height="5" fill="#732F0D" />
<rect x="1" y="22" width="1" height="3" fill="#DB0007" />
<rect x="4" y="22" width="1" height="1" fill="#B52603" />
<rect x="5" y="22" width="1" height="6" fill="#DB0007" />
<rect x="7" y="22" width="1" height="2" fill="#DB0007" />
<rect x="8" y="22" width="2" height="1" fill="#732F0D" />
<rect x="16" y="22" width="1" height="5" fill="#732F0D" />
<rect x="17" y="22" width="1" height="3" fill="#DB0007" />
<rect x="19" y="22" width="1" height="5" fill="#DB0007" />
<rect x="20" y="22" width="1" height="1" fill="#B52603" />
<rect x="21" y="22" width="2" height="3" fill="#DB0007" />
<rect x="28" y="22" width="2" height="2" fill="#DB0007" />
<rect x="30" y="22" width="1" height="2" fill="#732F0D" />
<rect x="33" y="22" width="1" height="1" fill="#732F0D" />
<rect x="34" y="22" width="3" height="1" fill="#DB0007" />
<rect x="37" y="22" width="1" height="1" fill="#B52603" />
<rect x="38" y="22" width="5" height="2" fill="#DB0007" />
<rect x="43" y="22" width="1" height="1" fill="#732F0D" />
<rect x="49" y="22" width="1" height="1" fill="#732F0D" />
<rect x="50" y="22" width="3" height="1" fill="#DB0007" />
<rect x="53" y="22" width="1" height="1" fill="#B52603" />
<rect x="54" y="22" width="6" height="2" fill="#DB0007" />
<rect x="60" y="22" width="1" height="1" fill="#732F0D" />
<rect x="4" y="23" width="1" height="4" fill="#DB0007" />
<rect x="8" y="23" width="1" height="1" fill="#732F0D" />
<rect x="20" y="23" width="1" height="5" fill="#DB0007" />
<rect x="23" y="23" width="1" height="1" fill="#DB0007" />
<rect x="24" y="23" width="1" height="1" fill="#B52603" />
<rect x="25" y="23" width="3" height="1" fill="#732F0D" />
<rect x="32" y="23" width="1" height="5" fill="#732F0D" />
<rect x="33" y="23" width="3" height="3" fill="#DB0007" />
<rect x="36" y="23" width="1" height="1" fill="#B52603" />
<rect x="37" y="23" width="1" height="3" fill="#DB0007" />
<rect x="43" y="23" width="1" height="3" fill="#DB0007" />
<rect x="44" y="23" width="1" height="3" fill="#732F0D" />
<rect x="48" y="23" width="1" height="5" fill="#732F0D" />
<rect x="49" y="23" width="3" height="3" fill="#DB0007" />
<rect x="52" y="23" width="1" height="1" fill="#B52603" />
<rect x="53" y="23" width="1" height="3" fill="#DB0007" />
<rect x="60" y="23" width="1" height="2" fill="#DB0007" />
<rect x="61" y="23" width="1" height="2" fill="#732F0D" />
<rect x="6" y="24" width="1" height="2" fill="#B52603" />
<rect x="7" y="24" width="1" height="2" fill="#732F0D" />
<rect x="23" y="24" width="1" height="1" fill="#B52603" />
<rect x="24" y="24" width="1" height="1" fill="#732F0D" />
<rect x="28" y="24" width="2" height="1" fill="#732F0D" />
<rect x="36" y="24" width="1" height="2" fill="#DB0007" />
<rect x="38" y="24" width="1" height="1" fill="#DB0007" />
<rect x="39" y="24" width="1" height="1" fill="#B52603" />
<rect x="40" y="24" width="2" height="1" fill="#732F0D" />
<rect x="42" y="24" width="1" height="1" fill="#DB0007" />
<rect x="52" y="24" width="1" height="2" fill="#DB0007" />
<rect x="54" y="24" width="1" height="1" fill="#DB0007" />
<rect x="55" y="24" width="1" height="1" fill="#B52603" />
<rect x="56" y="24" width="3" height="1" fill="#732F0D" />
<rect x="59" y="24" width="1" height="1" fill="#DB0007" />
<rect x="1" y="25" width="1" height="2" fill="#B52603" />
<rect x="17" y="25" width="1" height="2" fill="#B52603" />
<rect x="21" y="25" width="1" height="5" fill="#DB0007" />
<rect x="22" y="25" width="1" height="1" fill="#B52603" />
<rect x="23" y="25" width="1" height="1" fill="#732F0D" />
<rect x="38" y="25" width="1" height="1" fill="#B52603" />
<rect x="39" y="25" width="1" height="1" fill="#732F0D" />
<rect x="42" y="25" width="1" height="2" fill="#732F0D" />
<rect x="54" y="25" width="1" height="1" fill="#B52603" />
<rect x="55" y="25" width="1" height="1" fill="#732F0D" />
<rect x="59" y="25" width="2" height="1" fill="#732F0D" />
<rect x="6" y="26" width="1" height="3" fill="#DB0007" />
<rect x="7" y="26" width="1" height="1" fill="#B52603" />
<rect x="8" y="26" width="2" height="1" fill="#732F0D" />
<rect x="22" y="26" width="1" height="1" fill="#732F0D" />
<rect x="33" y="26" width="1" height="2" fill="#B52603" />
<rect x="34" y="26" width="2" height="2" fill="#DB0007" />
<rect x="36" y="26" width="2" height="1" fill="#B52603" />
<rect x="38" y="26" width="1" height="1" fill="#732F0D" />
<rect x="40" y="26" width="1" height="1" fill="#732F0D" />
<rect x="43" y="26" width="1" height="1" fill="#732F0D" />
<rect x="49" y="26" width="1" height="2" fill="#B52603" />
<rect x="50" y="26" width="2" height="2" fill="#DB0007" />
<rect x="52" y="26" width="2" height="1" fill="#B52603" />
<rect x="54" y="26" width="1" height="1" fill="#732F0D" />
<rect x="56" y="26" width="2" height="1" fill="#732F0D" />
<rect x="1" y="27" width="1" height="1" fill="#732F0D" />
<rect x="2" y="27" width="3" height="1" fill="#B52603" />
<rect x="7" y="27" width="3" height="2" fill="#DB0007" />
<rect x="10" y="27" width="1" height="2" fill="#732F0D" />
<rect x="17" y="27" width="1" height="1" fill="#732F0D" />
<rect x="18" y="27" width="2" height="1" fill="#B52603" />
<rect x="22" y="27" width="1" height="1" fill="#B52603" />
<rect x="23" y="27" width="2" height="1" fill="#732F0D" />
<rect x="36" y="27" width="2" height="2" fill="#DB0007" />
<rect x="38" y="27" width="1" height="1" fill="#B52603" />
<rect x="39" y="27" width="1" height="1" fill="#732F0D" />
<rect x="40" y="27" width="1" height="2" fill="#DB0007" />
<rect x="41" y="27" width="1" height="2" fill="#732F0D" />
<rect x="52" y="27" width="2" height="2" fill="#DB0007" />
<rect x="54" y="27" width="1" height="1" fill="#B52603" />
<rect x="55" y="27" width="1" height="1" fill="#732F0D" />
<rect x="56" y="27" width="2" height="2" fill="#DB0007" />
<rect x="58" y="27" width="1" height="2" fill="#732F0D" />
<rect x="2" y="28" width="4" height="1" fill="#732F0D" />
<rect x="18" y="28" width="2" height="1" fill="#732F0D" />
<rect x="20" y="28" width="1" height="1" fill="#B52603" />
<rect x="22" y="28" width="3" height="2" fill="#DB0007" />
<rect x="25" y="28" width="1" height="2" fill="#732F0D" />
<rect x="33" y="28" width="1" height="1" fill="#732F0D" />
<rect x="34" y="28" width="1" height="1" fill="#B52603" />
<rect x="35" y="28" width="1" height="1" fill="#DB0007" />
<rect x="38" y="28" width="2" height="2" fill="#DB0007" />
<rect x="49" y="28" width="1" height="1" fill="#732F0D" />
<rect x="50" y="28" width="1" height="1" fill="#B52603" />
<rect x="51" y="28" width="1" height="1" fill="#DB0007" />
<rect x="54" y="28" width="2" height="2" fill="#DB0007" />
<rect x="6" y="29" width="4" height="1" fill="#732F0D" />
<rect x="20" y="29" width="1" height="1" fill="#732F0D" />
<rect x="34" y="29" width="3" height="1" fill="#732F0D" />
<rect x="37" y="29" width="1" height="1" fill="#DB0007" />
<rect x="40" y="29" width="1" height="1" fill="#732F0D" />
<rect x="50" y="29" width="3" height="1" fill="#732F0D" />
<rect x="53" y="29" width="1" height="1" fill="#DB0007" />
<rect x="56" y="29" width="1" height="1" fill="#DB0007" />
<rect x="57" y="29" width="1" height="1" fill="#732F0D" />
<rect x="21" y="30" width="4" height="1" fill="#732F0D" />
<rect x="37" y="30" width="3" height="1" fill="#732F0D" />
<rect x="53" y="30" width="4" height="1" fill="#732F0D" />
<rect x="5" y="35" width="5" height="1" fill="#FF0048" />
<rect x="3" y="36" width="2" height="1" fill="#FF0048" />
<rect x="5" y="36" width="5" height="1" fill="#732F0D" />
<rect x="10" y="36" width="2" height="1" fill="#FF0048" />
<rect x="19" y="36" width="9" height="1" fill="#732F0D" />
<rect x="2" y="37" width="1" height="1" fill="#FF0048" />
<rect x="3" y="37" width="4" height="1" fill="#732F0D" />
<rect x="7" y="37" width="5" height="1" fill="#DB0007" />
<rect x="12" y="37" width="2" height="1" fill="#FF0048" />
<rect x="18" y="37" width="1" height="1" fill="#732F0D" />
<rect x="19" y="37" width="4" height="1" fill="#DB0007" />
<rect x="23" y="37" width="5" height="1" fill="#B52603" />
<rect x="28" y="37" width="2" height="1" fill="#732F0D" />
<rect x="34" y="37" width="10" height="1" fill="#732F0D" />
<rect x="50" y="37" width="7" height="1" fill="#732F0D" />
<rect x="1" y="38" width="1" height="1" fill="#FF0048" />
<rect x="2" y="38" width="3" height="1" fill="#732F0D" />
<rect x="5" y="38" width="2" height="1" fill="#DB0007" />
<rect x="7" y="38" width="7" height="2" fill="#732F0D" />
<rect x="14" y="38" width="1" height="2" fill="#FF0048" />
<rect x="17" y="38" width="1" height="1" fill="#732F0D" />
<rect x="18" y="38" width="3" height="1" fill="#DB0007" />
<rect x="21" y="38" width="2" height="1" fill="#B52603" />
<rect x="23" y="38" width="7" height="2" fill="#DB0007" />
<rect x="30" y="38" width="1" height="2" fill="#732F0D" />
<rect x="33" y="38" width="1" height="1" fill="#732F0D" />
<rect x="34" y="38" width="3" height="1" fill="#DB0007" />
<rect x="37" y="38" width="2" height="1" fill="#B52603" />
<rect x="39" y="38" width="5" height="2" fill="#DB0007" />
<rect x="44" y="38" width="1" height="1" fill="#732F0D" />
<rect x="49" y="38" width="1" height="1" fill="#732F0D" />
<rect x="50" y="38" width="3" height="3" fill="#DB0007" />
<rect x="53" y="38" width="4" height="1" fill="#B52603" />
<rect x="57" y="38" width="2" height="1" fill="#732F0D" />
<rect x="0" y="39" width="1" height="5" fill="#FF0048" />
<rect x="1" y="39" width="3" height="3" fill="#732F0D" />
<rect x="4" y="39" width="1" height="1" fill="#DB0007" />
<rect x="5" y="39" width="2" height="2" fill="#732F0D" />
<rect x="16" y="39" width="1" height="4" fill="#732F0D" />
<rect x="17" y="39" width="3" height="2" fill="#DB0007" />
<rect x="20" y="39" width="1" height="1" fill="#B52603" />
<rect x="21" y="39" width="2" height="2" fill="#DB0007" />
<rect x="32" y="39" width="1" height="4" fill="#732F0D" />
<rect x="33" y="39" width="3" height="1" fill="#DB0007" />
<rect x="36" y="39" width="1" height="1" fill="#B52603" />
<rect x="37" y="39" width="2" height="1" fill="#DB0007" />
<rect x="44" y="39" width="1" height="2" fill="#DB0007" />
<rect x="45" y="39" width="1" height="3" fill="#732F0D" />
<rect x="48" y="39" width="1" height="4" fill="#732F0D" />
<rect x="49" y="39" width="1" height="1" fill="#DB0007" />
<rect x="53" y="39" width="1" height="3" fill="#DB0007" />
<rect x="54" y="39" width="2" height="1" fill="#732F0D" />
<rect x="56" y="39" width="3" height="1" fill="#B52603" />
<rect x="59" y="39" width="1" height="1" fill="#732F0D" />
<rect x="4" y="40" width="1" height="5" fill="#732F0D" />
<rect x="7" y="40" width="1" height="1" fill="#732F0D" />
<rect x="8" y="40" width="1" height="1" fill="#DB0007" />
<rect x="9" y="40" width="5" height="1" fill="#FF0048" />
<rect x="20" y="40" width="1" height="4" fill="#DB0007" />
<rect x="23" y="40" width="1" height="1" fill="#DB0007" />
<rect x="24" y="40" width="1" height="1" fill="#B52603" />
<rect x="25" y="40" width="5" height="1" fill="#732F0D" />
<rect x="33" y="40" width="1" height="2" fill="#B52603" />
<rect x="34" y="40" width="3" height="2" fill="#DB0007" />
<rect x="37" y="40" width="2" height="1" fill="#B52603" />
<rect x="39" y="40" width="4" height="1" fill="#732F0D" />
<rect x="43" y="40" width="1" height="1" fill="#DB0007" />
<rect x="49" y="40" width="1" height="1" fill="#B52603" />
<rect x="54" y="40" width="2" height="2" fill="#DB0007" />
<rect x="56" y="40" width="1" height="2" fill="#732F0D" />
<rect x="57" y="40" width="3" height="1" fill="#B52603" />
<rect x="60" y="40" width="1" height="2" fill="#732F0D" />
<rect x="5" y="41" width="1" height="1" fill="#732F0D" />
<rect x="6" y="41" width="2" height="1" fill="#DB0007" />
<rect x="8" y="41" width="1" height="1" fill="#FF0048" />
<rect x="17" y="41" width="1" height="2" fill="#B52603" />
<rect x="18" y="41" width="2" height="2" fill="#DB0007" />
<rect x="21" y="41" width="2" height="1" fill="#B52603" />
<rect x="23" y="41" width="2" height="1" fill="#732F0D" />
<rect x="37" y="41" width="2" height="2" fill="#DB0007" />
<rect x="39" y="41" width="1" height="1" fill="#B52603" />
<rect x="40" y="41" width="2" height="1" fill="#732F0D" />
<rect x="43" y="41" width="2" height="1" fill="#732F0D" />
<rect x="49" y="41" width="3" height="3" fill="#732F0D" />
<rect x="52" y="41" width="1" height="1" fill="#DB0007" />
<rect x="57" y="41" width="1" height="1" fill="#732F0D" />
<rect x="58" y="41" width="2" height="1" fill="#B52603" />
<rect x="1" y="42" width="1" height="2" fill="#DB0007" />
<rect x="2" y="42" width="2" height="2" fill="#732F0D" />
<rect x="5" y="42" width="2" height="1" fill="#DB0007" />
<rect x="7" y="42" width="1" height="1" fill="#FF0048" />
<rect x="21" y="42" width="2" height="2" fill="#DB0007" />
<rect x="23" y="42" width="1" height="1" fill="#B52603" />
<rect x="24" y="42" width="2" height="1" fill="#732F0D" />
<rect x="33" y="42" width="1" height="1" fill="#732F0D" />
<rect x="34" y="42" width="2" height="1" fill="#B52603" />
<rect x="36" y="42" width="1" height="1" fill="#DB0007" />
<rect x="39" y="42" width="3" height="2" fill="#DB0007" />
<rect x="42" y="42" width="1" height="2" fill="#732F0D" />
<rect x="52" y="42" width="4" height="1" fill="#732F0D" />
<rect x="58" y="42" width="2" height="1" fill="#732F0D" />
<rect x="5" y="43" width="2" height="2" fill="#732F0D" />
<rect x="7" y="43" width="1" height="1" fill="#DB0007" />
<rect x="8" y="43" width="2" height="1" fill="#FF0048" />
<rect x="17" y="43" width="1" height="1" fill="#732F0D" />
<rect x="18" y="43" width="2" height="1" fill="#B52603" />
<rect x="23" y="43" width="3" height="2" fill="#DB0007" />
<rect x="26" y="43" width="1" height="2" fill="#732F0D" />
<rect x="34" y="43" width="4" height="1" fill="#732F0D" />
<rect x="38" y="43" width="1" height="1" fill="#DB0007" />
<rect x="52" y="43" width="1" height="1" fill="#732F0D" />
<rect x="1" y="44" width="1" height="1" fill="#FF0048" />
<rect x="2" y="44" width="2" height="1" fill="#DB0007" />
<rect x="7" y="44" width="3" height="2" fill="#732F0D" />
<rect x="10" y="44" width="1" height="2" fill="#FF0048" />
<rect x="18" y="44" width="4" height="1" fill="#732F0D" />
<rect x="22" y="44" width="1" height="1" fill="#DB0007" />
<rect x="38" y="44" width="4" height="1" fill="#732F0D" />
<rect x="2" y="45" width="4" height="1" fill="#FF0048" />
<rect x="6" y="45" width="1" height="1" fill="#732F0D" />
<rect x="22" y="45" width="4" height="1" fill="#732F0D" />
<rect x="6" y="46" width="4" height="1" fill="#FF0048" />
<rect x="19" y="48" width="2" height="1" fill="#732F0D" />
<rect x="33" y="48" width="2" height="1" fill="#732F0D" />
<rect x="18" y="49" width="1" height="2" fill="#732F0D" />
<rect x="19" y="49" width="2" height="2" fill="#DB0007" />
<rect x="21" y="49" width="1" height="2" fill="#732F0D" />
<rect x="32" y="49" width="1" height="3" fill="#732F0D" />
<rect x="33" y="49" width="2" height="3" fill="#DB0007" />
<rect x="35" y="49" width="1" height="3" fill="#732F0D" />
<rect x="52" y="49" width="2" height="1" fill="#732F0D" />
<rect x="51" y="50" width="1" height="1" fill="#732F0D" />
<rect x="52" y="50" width="2" height="2" fill="#DB0007" />
<rect x="54" y="50" width="2" height="1" fill="#732F0D" />
<rect x="2" y="51" width="3" height="1" fill="#732F0D" />
<rect x="17" y="51" width="1" height="3" fill="#732F0D" />
<rect x="18" y="51" width="2" height="7" fill="#DB0007" />
<rect x="20" y="51" width="1" height="2" fill="#732F0D" />
<rect x="50" y="51" width="1" height="1" fill="#732F0D" />
<rect x="51" y="51" width="1" height="7" fill="#DB0007" />
<rect x="54" y="51" width="2" height="2" fill="#DB0007" />
<rect x="56" y="51" width="1" height="3" fill="#732F0D" />
<rect x="1" y="52" width="1" height="1" fill="#732F0D" />
<rect x="2" y="52" width="3" height="1" fill="#DB0007" />
<rect x="5" y="52" width="1" height="1" fill="#732F0D" />
<rect x="33" y="52" width="1" height="2" fill="#732F0D" />
<rect x="34" y="52" width="2" height="6" fill="#DB0007" />
<rect x="36" y="52" width="1" height="1" fill="#732F0D" />
<rect x="49" y="52" width="1" height="2" fill="#732F0D" />
<rect x="50" y="52" width="1" height="6" fill="#DB0007" />
<rect x="52" y="52" width="1" height="1" fill="#DB0007" />
<rect x="53" y="52" width="1" height="1" fill="#B52603" />
<rect x="0" y="53" width="1" height="6" fill="#732F0D" />
<rect x="1" y="53" width="2" height="4" fill="#DB0007" />
<rect x="3" y="53" width="1" height="1" fill="#B52603" />
<rect x="4" y="53" width="2" height="1" fill="#DB0007" />
<rect x="6" y="53" width="6" height="1" fill="#732F0D" />
<rect x="20" y="53" width="1" height="1" fill="#B52603" />
<rect x="21" y="53" width="10" height="1" fill="#732F0D" />
<rect x="36" y="53" width="1" height="1" fill="#B52603" />
<rect x="37" y="53" width="10" height="1" fill="#732F0D" />
<rect x="52" y="53" width="1" height="1" fill="#B52603" />
<rect x="53" y="53" width="3" height="1" fill="#732F0D" />
<rect x="57" y="53" width="4" height="1" fill="#732F0D" />
<rect x="61" y="53" width="2" height="1" fill="#DB0007" />
<rect x="3" y="54" width="1" height="1" fill="#732F0D" />
<rect x="4" y="54" width="1" height="1" fill="#B52603" />
<rect x="5" y="54" width="1" height="1" fill="#DB0007" />
<rect x="6" y="54" width="1" height="1" fill="#732F0D" />
<rect x="7" y="54" width="5" height="1" fill="#DB0007" />
<rect x="12" y="54" width="2" height="1" fill="#732F0D" />
<rect x="16" y="54" width="1" height="7" fill="#732F0D" />
<rect x="17" y="54" width="1" height="7" fill="#DB0007" />
<rect x="20" y="54" width="1" height="3" fill="#DB0007" />
<rect x="21" y="54" width="1" height="3" fill="#B52603" />
<rect x="22" y="54" width="9" height="2" fill="#DB0007" />
<rect x="31" y="54" width="2" height="5" fill="#732F0D" />
<rect x="33" y="54" width="1" height="7" fill="#DB0007" />
<rect x="36" y="54" width="1" height="3" fill="#DB0007" />
<rect x="37" y="54" width="1" height="3" fill="#B52603" />
<rect x="38" y="54" width="9" height="2" fill="#DB0007" />
<rect x="47" y="54" width="2" height="5" fill="#732F0D" />
<rect x="49" y="54" width="1" height="7" fill="#DB0007" />
<rect x="52" y="54" width="1" height="3" fill="#DB0007" />
<rect x="53" y="54" width="1" height="3" fill="#B52603" />
<rect x="54" y="54" width="6" height="1" fill="#DB0007" />
<rect x="60" y="54" width="3" height="2" fill="#FF0048" />
<rect x="63" y="54" width="1" height="5" fill="#DB0007" />
<rect x="3" y="55" width="1" height="1" fill="#DB0007" />
<rect x="4" y="55" width="2" height="1" fill="#732F0D" />
<rect x="6" y="55" width="2" height="1" fill="#DB0007" />
<rect x="8" y="55" width="4" height="1" fill="#B52603" />
<rect x="12" y="55" width="2" height="1" fill="#DB0007" />
<rect x="14" y="55" width="1" height="2" fill="#732F0D" />
<rect x="54" y="55" width="5" height="1" fill="#DB0007" />
<rect x="59" y="55" width="1" height="1" fill="#FF0048" />
<rect x="3" y="56" width="2" height="4" fill="#B52603" />
<rect x="5" y="56" width="2" height="1" fill="#DB0007" />
<rect x="7" y="56" width="1" height="2" fill="#B52603" />
<rect x="8" y="56" width="3" height="1" fill="#732F0D" />
<rect x="11" y="56" width="3" height="1" fill="#B52603" />
<rect x="22" y="56" width="1" height="5" fill="#DB0007" />
<rect x="23" y="56" width="8" height="1" fill="#B52603" />
<rect x="38" y="56" width="1" height="5" fill="#DB0007" />
<rect x="39" y="56" width="8" height="1" fill="#B52603" />
<rect x="54" y="56" width="1" height="5" fill="#DB0007" />
<rect x="55" y="56" width="5" height="1" fill="#B52603" />
<rect x="60" y="56" width="3" height="1" fill="#DB0007" />
<rect x="1" y="57" width="2" height="2" fill="#B52603" />
<rect x="5" y="57" width="2" height="3" fill="#B52603" />
<rect x="8" y="57" width="3" height="1" fill="#B52603" />
<rect x="11" y="57" width="3" height="1" fill="#732F0D" />
<rect x="20" y="57" width="1" height="1" fill="#B52603" />
<rect x="21" y="57" width="1" height="5" fill="#DB0007" />
<rect x="23" y="57" width="1" height="1" fill="#B52603" />
<rect x="24" y="57" width="7" height="2" fill="#DB0007" />
<rect x="36" y="57" width="1" height="1" fill="#B52603" />
<rect x="37" y="57" width="1" height="5" fill="#DB0007" />
<rect x="39" y="57" width="1" height="1" fill="#B52603" />
<rect x="40" y="57" width="7" height="2" fill="#DB0007" />
<rect x="52" y="57" width="1" height="1" fill="#B52603" />
<rect x="53" y="57" width="1" height="5" fill="#DB0007" />
<rect x="55" y="57" width="1" height="1" fill="#B52603" />
<rect x="56" y="57" width="4" height="2" fill="#DB0007" />
<rect x="60" y="57" width="3" height="1" fill="#FF0048" />
<rect x="7" y="58" width="4" height="1" fill="#732F0D" />
<rect x="11" y="58" width="2" height="1" fill="#B52603" />
<rect x="13" y="58" width="1" height="1" fill="#732F0D" />
<rect x="18" y="58" width="2" height="1" fill="#B52603" />
<rect x="20" y="58" width="1" height="4" fill="#DB0007" />
<rect x="23" y="58" width="1" height="2" fill="#DB0007" />
<rect x="34" y="58" width="2" height="1" fill="#B52603" />
<rect x="36" y="58" width="1" height="4" fill="#DB0007" />
<rect x="39" y="58" width="1" height="2" fill="#DB0007" />
<rect x="50" y="58" width="2" height="1" fill="#B52603" />
<rect x="52" y="58" width="1" height="4" fill="#DB0007" />
<rect x="55" y="58" width="1" height="2" fill="#DB0007" />
<rect x="60" y="58" width="1" height="1" fill="#DB0007" />
<rect x="61" y="58" width="2" height="1" fill="#FF0048" />
<rect x="1" y="59" width="1" height="1" fill="#732F0D" />
<rect x="2" y="59" width="1" height="1" fill="#B52603" />
<rect x="7" y="59" width="3" height="1" fill="#B52603" />
<rect x="10" y="59" width="3" height="1" fill="#732F0D" />
<rect x="18" y="59" width="2" height="3" fill="#DB0007" />
<rect x="24" y="59" width="2" height="1" fill="#B52603" />
<rect x="26" y="59" width="5" height="1" fill="#732F0D" />
<rect x="32" y="59" width="1" height="2" fill="#732F0D" />
<rect x="34" y="59" width="2" height="3" fill="#DB0007" />
<rect x="40" y="59" width="2" height="1" fill="#B52603" />
<rect x="42" y="59" width="5" height="1" fill="#732F0D" />
<rect x="48" y="59" width="1" height="2" fill="#732F0D" />
<rect x="50" y="59" width="2" height="3" fill="#DB0007" />
<rect x="56" y="59" width="2" height="1" fill="#B52603" />
<rect x="58" y="59" width="4" height="1" fill="#732F0D" />
<rect x="62" y="59" width="1" height="1" fill="#DB0007" />
<rect x="2" y="60" width="7" height="1" fill="#732F0D" />
<rect x="9" y="60" width="1" height="1" fill="#B52603" />
<rect x="10" y="60" width="1" height="1" fill="#732F0D" />
<rect x="23" y="60" width="5" height="1" fill="#732F0D" />
<rect x="39" y="60" width="5" height="1" fill="#732F0D" />
<rect x="55" y="60" width="5" height="1" fill="#732F0D" />
<rect x="8" y="61" width="2" height="1" fill="#732F0D" />
<rect x="17" y="61" width="1" height="1" fill="#732F0D" />
<rect x="22" y="61" width="1" height="2" fill="#B52603" />
<rect x="23" y="61" width="4" height="1" fill="#DB0007" />
<rect x="27" y="61" width="1" height="2" fill="#732F0D" />
<rect x="33" y="61" width="1" height="1" fill="#732F0D" />
<rect x="38" y="61" width="1" height="2" fill="#B52603" />
<rect x="39" y="61" width="4" height="1" fill="#DB0007" />
<rect x="43" y="61" width="1" height="2" fill="#732F0D" />
<rect x="49" y="61" width="1" height="1" fill="#732F0D" />
<rect x="54" y="61" width="1" height="2" fill="#B52603" />
<rect x="55" y="61" width="4" height="1" fill="#DB0007" />
<rect x="59" y="61" width="1" height="2" fill="#732F0D" />
<rect x="18" y="62" width="4" height="1" fill="#732F0D" />
<rect x="23" y="62" width="2" height="1" fill="#DB0007" />
<rect x="25" y="62" width="1" height="1" fill="#B52603" />
<rect x="26" y="62" width="1" height="1" fill="#DB0007" />
<rect x="34" y="62" width="4" height="1" fill="#732F0D" />
<rect x="39" y="62" width="2" height="1" fill="#DB0007" />
<rect x="41" y="62" width="1" height="1" fill="#B52603" />
<rect x="42" y="62" width="1" height="1" fill="#DB0007" />
<rect x="50" y="62" width="4" height="1" fill="#732F0D" />
<rect x="55" y="62" width="2" height="1" fill="#DB0007" />
<rect x="57" y="62" width="1" height="1" fill="#B52603" />
<rect x="58" y="62" width="1" height="1" fill="#DB0007" />
<rect x="22" y="63" width="5" height="1" fill="#732F0D" />
<rect x="38" y="63" width="5" height="1" fill="#732F0D" />
<rect x="54" y="63" width="5" height="1" fill="#732F0D" />
</svg>