<?xml version="1.0" encoding="UTF-8" ?>
<svg version="1.1" width="112" height="32" xmlns="http://www.w3.org/2000/svg" shape-rendering="crispEdges">
<rect x="36" y="3" width="1" height="1" fill="#FF0048" />
<rect x="101" y="3" width="1" height="1" fill="#FF0048" />
<rect x="4" y="4" width="1" height="1" fill="#FF0048" />
<rect x="11" y="4" width="1" height="1" fill="#FF0048" />
<rect x="21" y="4" width="1" height="4" fill="#FF0048" />
<rect x="33" y="4" width="1" height="1" fill="#FF0048" />
<rect x="40" y="4" width="1" height="2" fill="#FF0048" />
<rect x="56" y="4" width="1" height="1" fill="#FF0048" />
<rect x="69" y="4" width="1" height="1" fill="#FF0048" />
<rect x="88" y="4" width="2" height="1" fill="#FF0048" />
<rect x="103" y="4" width="2" height="1" fill="#FF0048" />
<rect x="107" y="4" width="1" height="1" fill="#FF0048" />
<rect x="6" y="5" width="3" height="1" fill="#FF0048" />
<rect x="19" y="5" width="1" height="1" fill="#FF0048" />
<rect x="22" y="5" width="3" height="1" fill="#FF0048" />
<rect x="34" y="5" width="2" height="1" fill="#FF0048" />
<rect x="37" y="5" width="3" height="1" fill="#FF0048" />
<rect x="50" y="5" width="1" height="1" fill="#FF0048" />
<rect x="53" y="5" width="3" height="1" fill="#FF0048" />
<rect x="64" y="5" width="1" height="1" fill="#FF0048" />
<rect x="71" y="5" width="2" height="1" fill="#FF0048" />
<rect x="75" y="5" width="1" height="1" fill="#FF0048" />
<rect x="81" y="5" width="1" height="1" fill="#FF0048" />
<rect x="86" y="5" width="2" height="1" fill="#FF0048" />
<rect x="88" y="5" width="2" height="1" fill="#DB0007" />
<rect x="90" y="5" width="1" height="1" fill="#FF0048" />
<rect x="101" y="5" width="2" height="1" fill="#FF0048" />
<rect x="103" y="5" width="2" height="1" fill="#DB0007" />
<rect x="105" y="5" width="2" height="1" fill="#FF0048" />
<rect x="4" y="6" width="2" height="1" fill="#FF0048" />
<rect x="6" y="6" width="1" height="1" fill="#B52603" />
<rect x="7" y="6" width="2" height="1" fill="#DB0007" />
<rect x="9" y="6" width="2" height="1" fill="#FF0048" />
<rect x="20" y="6" width="1" height="1" fill="#FF0048" />
<rect x="22" y="6" width="1" height="1" fill="#B52603" />
<rect x="23" y="6" width="2" height="1" fill="#DB0007" />
<rect x="25" y="6" width="2" height="1" fill="#FF0048" />
<rect x="35" y="6" width="2" height="1" fill="#FF0048" />
<rect x="37" y="6" width="1" height="1" fill="#DB0007" />
<rect x="38" y="6" width="1" height="1" fill="#B52603" />
<rect x="39" y="6" width="2" height="1" fill="#DB0007" />
<rect x="41" y="6" width="2" height="1" fill="#FF0048" />
<rect x="51" y="6" width="2" height="1" fill="#FF0048" />
<rect x="53" y="6" width="1" height="1" fill="#DB0007" />
<rect x="54" y="6" width="1" height="1" fill="#B52603" />
<rect x="55" y="6" width="2" height="1" fill="#DB0007" />
<rect x="57" y="6" width="2" height="1" fill="#FF0048" />
<rect x="66" y="6" width="1" height="1" fill="#FF0048" />
<rect x="69" y="6" width="2" height="1" fill="#FF0048" />
<rect x="71" y="6" width="2" height="1" fill="#DB0007" />
<rect x="73" y="6" width="2" height="1" fill="#FF0048" />
<rect x="83" y="6" width="1" height="1" fill="#FF0048" />
<rect x="85" y="6" width="2" height="1" fill="#FF0048" />
<rect x="87" y="6" width="1" height="1" fill="#DB0007" />
<rect x="88" y="6" width="1" height="1" fill="#B52603" />
<rect x="89" y="6" width="3" height="1" fill="#FFFFFF" />
<rect x="99" y="6" width="2" height="1" fill="#FF0048" />
<rect x="101" y="6" width="1" height="1" fill="#DB0007" />
<rect x="102" y="6" width="2" height="1" fill="#B52603" />
<rect x="104" y="6" width="1" height="1" fill="#732F0D" />
<rect x="105" y="6" width="3" height="1" fill="#FFFFFF" />
<rect x="108" y="6" width="1" height="3" fill="#FF0048" />
<rect x="5" y="7" width="1" height="1" fill="#FF0048" />
<rect x="6" y="7" width="1" height="1" fill="#DB0007" />
<rect x="7" y="7" width="1" height="1" fill="#B52603" />
<rect x="8" y="7" width="1" height="1" fill="#732F0D" />
<rect x="9" y="7" width="3" height="1" fill="#FFFFFF" />
<rect x="22" y="7" width="1" height="1" fill="#DB0007" />
<rect x="23" y="7" width="1" height="1" fill="#B52603" />
<rect x="24" y="7" width="1" height="1" fill="#732F0D" />
<rect x="25" y="7" width="3" height="1" fill="#FFFFFF" />
<rect x="36" y="7" width="2" height="1" fill="#FF0048" />
<rect x="38" y="7" width="1" height="1" fill="#DB0007" />
<rect x="39" y="7" width="1" height="1" fill="#B52603" />
<rect x="40" y="7" width="1" height="1" fill="#732F0D" />
<rect x="41" y="7" width="3" height="1" fill="#FFFFFF" />
<rect x="49" y="7" width="1" height="1" fill="#FF0048" />
<rect x="52" y="7" width="2" height="1" fill="#FF0048" />
<rect x="54" y="7" width="1" height="1" fill="#DB0007" />
<rect x="55" y="7" width="1" height="1" fill="#B52603" />
<rect x="56" y="7" width="1" height="1" fill="#732F0D" />
<rect x="57" y="7" width="3" height="1" fill="#FFFFFF" />
<rect x="67" y="7" width="2" height="1" fill="#FF0048" />
<rect x="69" y="7" width="1" height="1" fill="#DB0007" />
<rect x="70" y="7" width="2" height="1" fill="#B52603" />
<rect x="72" y="7" width="1" height="1" fill="#732F0D" />
<rect x="73" y="7" width="3" height="1" fill="#FFFFFF" />
<rect x="84" y="7" width="1" height="2" fill="#FF0048" />
<rect x="85" y="7" width="2" height="1" fill="#DB0007" />
<rect x="87" y="7" width="1" height="1" fill="#B52603" />
<rect x="88" y="7" width="1" height="2" fill="#FFFFFF" />
<rect x="89" y="7" width="1" height="1" fill="#3C3D0A" />
<rect x="90" y="7" width="1" height="2" fill="#FFFFFF" />
<rect x="91" y="7" width="1" height="1" fill="#3C3D0A" />
<rect x="92" y="7" width="1" height="2" fill="#FF0048" />
<rect x="97" y="7" width="1" height="1" fill="#FF0048" />
<rect x="100" y="7" width="2" height="1" fill="#FF0048" />
<rect x="102" y="7" width="2" height="1" fill="#DB0007" />
<rect x="104" y="7" width="1" height="2" fill="#FFFFFF" />
<rect x="105" y="7" width="1" height="1" fill="#3C3D0A" />
<rect x="106" y="7" width="1" height="2" fill="#FFFFFF" />
<rect x="107" y="7" width="1" height="1" fill="#3C3D0A" />
<rect x="3" y="8" width="1" height="1" fill="#FF0048" />
<rect x="6" y="8" width="1" height="1" fill="#FF0048" />
<rect x="7" y="8" width="1" height="1" fill="#DB0007" />
<rect x="8" y="8" width="1" height="2" fill="#FFFFFF" />
<rect x="9" y="8" width="1" height="1" fill="#3C3D0A" />
<rect x="10" y="8" width="1" height="2" fill="#FFFFFF" />
<rect x="11" y="8" width="1" height="1" fill="#3C3D0A" />
<rect x="12" y="8" width="1" height="2" fill="#FF0048" />
<rect x="19" y="8" width="1" height="1" fill="#FF0048" />
<rect x="22" y="8" width="1" height="1" fill="#FF0048" />
<rect x="23" y="8" width="1" height="1" fill="#DB0007" />
<rect x="24" y="8" width="1" height="2" fill="#FFFFFF" />
<rect x="25" y="8" width="1" height="1" fill="#3C3D0A" />
<rect x="26" y="8" width="1" height="2" fill="#FFFFFF" />
<rect x="27" y="8" width="1" height="1" fill="#3C3D0A" />
<rect x="28" y="8" width="1" height="2" fill="#FF0048" />
<rect x="33" y="8" width="1" height="1" fill="#FF0048" />
<rect x="35" y="8" width="1" height="1" fill="#FF0048" />
<rect x="38" y="8" width="1" height="1" fill="#FF0048" />
<rect x="39" y="8" width="1" height="1" fill="#DB0007" />
<rect x="40" y="8" width="1" height="2" fill="#FFFFFF" />
<rect x="41" y="8" width="1" height="1" fill="#3C3D0A" />
<rect x="42" y="8" width="1" height="2" fill="#FFFFFF" />
<rect x="43" y="8" width="1" height="1" fill="#3C3D0A" />
<rect x="44" y="8" width="1" height="2" fill="#FF0048" />
<rect x="51" y="8" width="1" height="1" fill="#FF0048" />
<rect x="54" y="8" width="1" height="1" fill="#FF0048" />
<rect x="55" y="8" width="1" height="1" fill="#DB0007" />
<rect x="56" y="8" width="1" height="2" fill="#FFFFFF" />
<rect x="57" y="8" width="1" height="1" fill="#3C3D0A" />
<rect x="58" y="8" width="1" height="2" fill="#FFFFFF" />
<rect x="59" y="8" width="1" height="1" fill="#3C3D0A" />
<rect x="60" y="8" width="1" height="2" fill="#FF0048" />
<rect x="65" y="8" width="1" height="1" fill="#FF0048" />
<rect x="68" y="8" width="2" height="1" fill="#FF0048" />
<rect x="70" y="8" width="2" height="1" fill="#DB0007" />
<rect x="72" y="8" width="1" height="2" fill="#FFFFFF" />
<rect x="73" y="8" width="1" height="1" fill="#3C3D0A" />
<rect x="74" y="8" width="1" height="2" fill="#FFFFFF" />
<rect x="75" y="8" width="1" height="1" fill="#3C3D0A" />
<rect x="76" y="8" width="1" height="2" fill="#FF0048" />
<rect x="83" y="8" width="1" height="1" fill="#FF0048" />
<rect x="85" y="8" width="2" height="1" fill="#FF0048" />
<rect x="87" y="8" width="1" height="1" fill="#DB0007" />
<rect x="89" y="8" width="1" height="2" fill="#FFFFFF" />
<rect x="91" y="8" width="1" height="2" fill="#FFFFFF" />
<rect x="102" y="8" width="2" height="1" fill="#FF0048" />
<rect x="105" y="8" width="1" height="2" fill="#FFFFFF" />
<rect x="107" y="8" width="1" height="2" fill="#FFFFFF" />
<rect x="7" y="9" width="1" height="1" fill="#FF0048" />
<rect x="9" y="9" width="1" height="2" fill="#FFFFFF" />
<rect x="11" y="9" width="1" height="2" fill="#FFFFFF" />
<rect x="21" y="9" width="1" height="1" fill="#FF0048" />
<rect x="23" y="9" width="1" height="1" fill="#FF0048" />
<rect x="25" y="9" width="1" height="2" fill="#FFFFFF" />
<rect x="27" y="9" width="1" height="2" fill="#FFFFFF" />
<rect x="39" y="9" width="1" height="1" fill="#FF0048" />
<rect x="41" y="9" width="1" height="2" fill="#FFFFFF" />
<rect x="43" y="9" width="1" height="2" fill="#FFFFFF" />
<rect x="55" y="9" width="1" height="1" fill="#FF0048" />
<rect x="57" y="9" width="1" height="2" fill="#FFFFFF" />
<rect x="59" y="9" width="1" height="2" fill="#FFFFFF" />
<rect x="70" y="9" width="2" height="1" fill="#FF0048" />
<rect x="73" y="9" width="1" height="2" fill="#FFFFFF" />
<rect x="75" y="9" width="1" height="2" fill="#FFFFFF" />
<rect x="85" y="9" width="1" height="1" fill="#FF0048" />
<rect x="88" y="9" width="1" height="1" fill="#FF0048" />
<rect x="90" y="9" width="1" height="1" fill="#3C3D0A" />
<rect x="93" y="9" width="1" height="1" fill="#FF0048" />
<rect x="101" y="9" width="1" height="1" fill="#FF0048" />
<rect x="104" y="9" width="1" height="1" fill="#FF0048" />
<rect x="106" y="9" width="1" height="1" fill="#3C3D0A" />
<rect x="6" y="10" width="1" height="1" fill="#FF0048" />
<rect x="8" y="10" width="1" height="1" fill="#FF0048" />
<rect x="10" y="10" width="1" height="1" fill="#3C3D0A" />
<rect x="24" y="10" width="1" height="1" fill="#FF0048" />
<rect x="26" y="10" width="1" height="1" fill="#3C3D0A" />
<rect x="40" y="10" width="1" height="1" fill="#FF0048" />
<rect x="42" y="10" width="1" height="1" fill="#3C3D0A" />
<rect x="56" y="10" width="1" height="1" fill="#FF0048" />
<rect x="58" y="10" width="1" height="1" fill="#3C3D0A" />
<rect x="72" y="10" width="1" height="1" fill="#FF0048" />
<rect x="74" y="10" width="1" height="1" fill="#3C3D0A" />
<rect x="87" y="10" width="1" height="1" fill="#FF0048" />
<rect x="98" y="10" width="1" height="1" fill="#FF0048" />
<rect x="83" y="11" width="1" height="1" fill="#FF0048" />
<rect x="4" y="19" width="1" height="1" fill="#FF0048" />
<rect x="7" y="19" width="1" height="2" fill="#FF0048" />
<rect x="16" y="19" width="1" height="1" fill="#FF0048" />
<rect x="37" y="19" width="2" height="1" fill="#FF0048" />
<rect x="54" y="19" width="3" height="1" fill="#FF0048" />
<rect x="69" y="19" width="1" height="1" fill="#FF0048" />
<rect x="1" y="20" width="1" height="1" fill="#FF0048" />
<rect x="5" y="20" width="2" height="1" fill="#FF0048" />
<rect x="8" y="20" width="1" height="1" fill="#FF0048" />
<rect x="20" y="20" width="1" height="1" fill="#FF0048" />
<rect x="22" y="20" width="2" height="1" fill="#FF0048" />
<rect x="35" y="20" width="1" height="1" fill="#FF0048" />
<rect x="37" y="20" width="1" height="1" fill="#FF0048" />
<rect x="38" y="20" width="1" height="1" fill="#DB0007" />
<rect x="39" y="20" width="2" height="1" fill="#FF0048" />
<rect x="52" y="20" width="2" height="1" fill="#FF0048" />
<rect x="55" y="20" width="1" height="2" fill="#FF0048" />
<rect x="56" y="20" width="1" height="1" fill="#DB0007" />
<rect x="57" y="20" width="1" height="1" fill="#FF0048" />
<rect x="59" y="20" width="1" height="1" fill="#FF0048" />
<rect x="70" y="20" width="2" height="1" fill="#FF0048" />
<rect x="74" y="20" width="1" height="1" fill="#FF0048" />
<rect x="84" y="20" width="1" height="1" fill="#FF0048" />
<rect x="91" y="20" width="1" height="1" fill="#FF0048" />
<rect x="100" y="20" width="1" height="1" fill="#FF0048" />
<rect x="107" y="20" width="1" height="1" fill="#FF0048" />
<rect x="3" y="21" width="2" height="1" fill="#FF0048" />
<rect x="5" y="21" width="4" height="1" fill="#DB0007" />
<rect x="9" y="21" width="2" height="1" fill="#FF0048" />
<rect x="21" y="21" width="1" height="1" fill="#FF0048" />
<rect x="22" y="21" width="2" height="1" fill="#DB0007" />
<rect x="24" y="21" width="3" height="1" fill="#FF0048" />
<rect x="38" y="21" width="1" height="5" fill="#FF0048" />
<rect x="39" y="21" width="1" height="2" fill="#DB0007" />
<rect x="40" y="21" width="3" height="1" fill="#FF0048" />
<rect x="50" y="21" width="1" height="1" fill="#FF0048" />
<rect x="56" y="21" width="1" height="2" fill="#B52603" />
<rect x="57" y="21" width="1" height="1" fill="#DB0007" />
<rect x="58" y="21" width="1" height="1" fill="#FF0048" />
<rect x="68" y="21" width="1" height="1" fill="#FF0048" />
<rect x="70" y="21" width="1" height="1" fill="#FF0048" />
<rect x="71" y="21" width="1" height="4" fill="#B52603" />
<rect x="72" y="21" width="2" height="1" fill="#FF0048" />
<rect x="76" y="21" width="1" height="1" fill="#FF0048" />
<rect x="86" y="21" width="3" height="1" fill="#FF0048" />
<rect x="102" y="21" width="3" height="1" fill="#FF0048" />
<rect x="4" y="22" width="1" height="1" fill="#FF0048" />
<rect x="5" y="22" width="1" height="1" fill="#DB0007" />
<rect x="6" y="22" width="1" height="1" fill="#B52603" />
<rect x="7" y="22" width="1" height="1" fill="#732F0D" />
<rect x="8" y="22" width="1" height="1" fill="#B52603" />
<rect x="9" y="22" width="1" height="1" fill="#DB0007" />
<rect x="10" y="22" width="2" height="1" fill="#FF0048" />
<rect x="19" y="22" width="2" height="1" fill="#FF0048" />
<rect x="21" y="22" width="1" height="1" fill="#DB0007" />
<rect x="22" y="22" width="1" height="1" fill="#B52603" />
<rect x="23" y="22" width="1" height="1" fill="#732F0D" />
<rect x="24" y="22" width="1" height="1" fill="#B52603" />
<rect x="25" y="22" width="1" height="1" fill="#DB0007" />
<rect x="26" y="22" width="2" height="1" fill="#FF0048" />
<rect x="36" y="22" width="1" height="1" fill="#FF0048" />
<rect x="40" y="22" width="1" height="1" fill="#B52603" />
<rect x="41" y="22" width="1" height="1" fill="#DB0007" />
<rect x="42" y="22" width="2" height="1" fill="#FF0048" />
<rect x="54" y="22" width="1" height="4" fill="#FF0048" />
<rect x="55" y="22" width="1" height="3" fill="#B52603" />
<rect x="57" y="22" width="1" height="1" fill="#B52603" />
<rect x="58" y="22" width="1" height="1" fill="#DB0007" />
<rect x="59" y="22" width="1" height="2" fill="#FF0048" />
<rect x="69" y="22" width="1" height="2" fill="#FF0048" />
<rect x="70" y="22" width="1" height="1" fill="#B52603" />
<rect x="72" y="22" width="1" height="1" fill="#B52603" />
<rect x="73" y="22" width="2" height="1" fill="#FF0048" />
<rect x="84" y="22" width="2" height="1" fill="#FF0048" />
<rect x="86" y="22" width="1" height="1" fill="#B52603" />
<rect x="87" y="22" width="2" height="1" fill="#DB0007" />
<rect x="89" y="22" width="2" height="1" fill="#FF0048" />
<rect x="100" y="22" width="2" height="1" fill="#FF0048" />
<rect x="102" y="22" width="1" height="1" fill="#B52603" />
<rect x="103" y="22" width="2" height="1" fill="#DB0007" />
<rect x="105" y="22" width="2" height="1" fill="#FF0048" />
<rect x="3" y="23" width="1" height="1" fill="#FF0048" />
<rect x="5" y="23" width="1" height="1" fill="#FF0048" />
<rect x="6" y="23" width="1" height="1" fill="#DB0007" />
<rect x="7" y="23" width="1" height="1" fill="#B52603" />
<rect x="8" y="23" width="1" height="1" fill="#732F0D" />
<rect x="9" y="23" width="3" height="1" fill="#FFFFFF" />
<rect x="21" y="23" width="1" height="1" fill="#FF0048" />
<rect x="22" y="23" width="1" height="1" fill="#DB0007" />
<rect x="23" y="23" width="1" height="1" fill="#B52603" />
<rect x="24" y="23" width="1" height="1" fill="#732F0D" />
<rect x="25" y="23" width="3" height="1" fill="#FFFFFF" />
<rect x="37" y="23" width="1" height="1" fill="#FF0048" />
<rect x="39" y="23" width="1" height="1" fill="#732F0D" />
<rect x="40" y="23" width="1" height="1" fill="#DB0007" />
<rect x="41" y="23" width="1" height="1" fill="#B52603" />
<rect x="42" y="23" width="1" height="1" fill="#DB0007" />
<rect x="43" y="23" width="1" height="1" fill="#FF0048" />
<rect x="52" y="23" width="1" height="1" fill="#FF0048" />
<rect x="56" y="23" width="2" height="1" fill="#732F0D" />
<rect x="58" y="23" width="1" height="1" fill="#B52603" />
<rect x="70" y="23" width="1" height="3" fill="#FF0048" />
<rect x="72" y="23" width="2" height="1" fill="#732F0D" />
<rect x="74" y="23" width="1" height="1" fill="#B52603" />
<rect x="75" y="23" width="1" height="1" fill="#FF0048" />
<rect x="85" y="23" width="1" height="1" fill="#FF0048" />
<rect x="86" y="23" width="1" height="1" fill="#DB0007" />
<rect x="87" y="23" width="1" height="1" fill="#B52603" />
<rect x="88" y="23" width="1" height="1" fill="#732F0D" />
<rect x="89" y="23" width="3" height="1" fill="#FFFFFF" />
<rect x="101" y="23" width="1" height="1" fill="#FF0048" />
<rect x="102" y="23" width="1" height="1" fill="#DB0007" />
<rect x="103" y="23" width="1" height="1" fill="#B52603" />
<rect x="104" y="23" width="1" height="1" fill="#732F0D" />
<rect x="105" y="23" width="3" height="1" fill="#3C3D0A" />
<rect x="6" y="24" width="1" height="1" fill="#FF0048" />
<rect x="7" y="24" width="1" height="1" fill="#DB0007" />
<rect x="8" y="24" width="1" height="2" fill="#FFFFFF" />
<rect x="9" y="24" width="1" height="1" fill="#3C3D0A" />
<rect x="10" y="24" width="1" height="2" fill="#FFFFFF" />
<rect x="11" y="24" width="1" height="1" fill="#3C3D0A" />
<rect x="12" y="24" width="1" height="2" fill="#FF0048" />
<rect x="22" y="24" width="1" height="1" fill="#FF0048" />
<rect x="23" y="24" width="1" height="1" fill="#DB0007" />
<rect x="24" y="24" width="1" height="2" fill="#FFFFFF" />
<rect x="25" y="24" width="1" height="1" fill="#3C3D0A" />
<rect x="26" y="24" width="1" height="2" fill="#FFFFFF" />
<rect x="27" y="24" width="1" height="1" fill="#3C3D0A" />
<rect x="28" y="24" width="1" height="2" fill="#FF0048" />
<rect x="33" y="24" width="1" height="1" fill="#FF0048" />
<rect x="39" y="24" width="1" height="1" fill="#B52603" />
<rect x="40" y="24" width="1" height="1" fill="#732F0D" />
<rect x="41" y="24" width="3" height="1" fill="#FFFFFF" />
<rect x="45" y="24" width="1" height="1" fill="#FF0048" />
<rect x="56" y="24" width="1" height="1" fill="#732F0D" />
<rect x="57" y="24" width="3" height="1" fill="#FFFFFF" />
<rect x="72" y="24" width="1" height="1" fill="#732F0D" />
<rect x="73" y="24" width="3" height="1" fill="#FFFFFF" />
<rect x="83" y="24" width="1" height="1" fill="#FF0048" />
<rect x="86" y="24" width="1" height="1" fill="#FF0048" />
<rect x="87" y="24" width="1" height="1" fill="#DB0007" />
<rect x="88" y="24" width="1" height="2" fill="#FFFFFF" />
<rect x="89" y="24" width="1" height="1" fill="#3C3D0A" />
<rect x="90" y="24" width="1" height="2" fill="#FFFFFF" />
<rect x="91" y="24" width="1" height="1" fill="#3C3D0A" />
<rect x="92" y="24" width="1" height="2" fill="#FF0048" />
<rect x="99" y="24" width="1" height="1" fill="#FF0048" />
<rect x="102" y="24" width="1" height="1" fill="#FF0048" />
<rect x="103" y="24" width="1" height="1" fill="#DB0007" />
<rect x="104" y="24" width="1" height="2" fill="#3C3D0A" />
<rect x="105" y="24" width="1" height="1" fill="#FFFFFF" />
<rect x="106" y="24" width="1" height="2" fill="#3C3D0A" />
<rect x="107" y="24" width="1" height="1" fill="#FFFFFF" />
<rect x="108" y="24" width="1" height="2" fill="#FF0048" />
<rect x="4" y="25" width="1" height="1" fill="#FF0048" />
<rect x="7" y="25" width="1" height="1" fill="#FF0048" />
<rect x="9" y="25" width="1" height="2" fill="#FFFFFF" />
<rect x="11" y="25" width="1" height="2" fill="#FFFFFF" />
<rect x="18" y="25" width="1" height="1" fill="#FF0048" />
<rect x="23" y="25" width="1" height="1" fill="#FF0048" />
<rect x="25" y="25" width="1" height="2" fill="#FFFFFF" />
<rect x="27" y="25" width="1" height="2" fill="#FFFFFF" />
<rect x="39" y="25" width="1" height="1" fill="#DB0007" />
<rect x="40" y="25" width="1" height="2" fill="#FFFFFF" />
<rect x="41" y="25" width="1" height="1" fill="#3C3D0A" />
<rect x="42" y="25" width="1" height="2" fill="#FFFFFF" />
<rect x="43" y="25" width="1" height="1" fill="#3C3D0A" />
<rect x="44" y="25" width="1" height="2" fill="#FF0048" />
<rect x="55" y="25" width="1" height="1" fill="#DB0007" />
<rect x="56" y="25" width="1" height="2" fill="#FFFFFF" />
<rect x="57" y="25" width="1" height="1" fill="#3C3D0A" />
<rect x="58" y="25" width="1" height="2" fill="#FFFFFF" />
<rect x="59" y="25" width="1" height="1" fill="#3C3D0A" />
<rect x="60" y="25" width="1" height="2" fill="#FF0048" />
<rect x="71" y="25" width="1" height="1" fill="#DB0007" />
<rect x="72" y="25" width="1" height="2" fill="#FFFFFF" />
<rect x="73" y="25" width="1" height="1" fill="#3C3D0A" />
<rect x="74" y="25" width="1" height="2" fill="#FFFFFF" />
<rect x="75" y="25" width="1" height="1" fill="#3C3D0A" />
<rect x="76" y="25" width="1" height="2" fill="#FF0048" />
<rect x="87" y="25" width="1" height="1" fill="#FF0048" />
<rect x="89" y="25" width="1" height="2" fill="#FFFFFF" />
<rect x="91" y="25" width="1" height="2" fill="#FFFFFF" />
<rect x="103" y="25" width="1" height="1" fill="#FF0048" />
<rect x="105" y="25" width="1" height="2" fill="#3C3D0A" />
<rect x="107" y="25" width="1" height="2" fill="#3C3D0A" />
<rect x="1" y="26" width="1" height="1" fill="#FF0048" />
<rect x="8" y="26" width="1" height="1" fill="#FF0048" />
<rect x="10" y="26" width="1" height="1" fill="#3C3D0A" />
<rect x="24" y="26" width="1" height="1" fill="#FF0048" />
<rect x="26" y="26" width="1" height="1" fill="#3C3D0A" />
<rect x="36" y="26" width="1" height="1" fill="#FF0048" />
<rect x="39" y="26" width="1" height="1" fill="#FF0048" />
<rect x="41" y="26" width="1" height="2" fill="#FFFFFF" />
<rect x="43" y="26" width="1" height="2" fill="#FFFFFF" />
<rect x="55" y="26" width="1" height="1" fill="#FF0048" />
<rect x="57" y="26" width="1" height="2" fill="#FFFFFF" />
<rect x="59" y="26" width="1" height="2" fill="#FFFFFF" />
<rect x="71" y="26" width="1" height="1" fill="#FF0048" />
<rect x="73" y="26" width="1" height="2" fill="#FFFFFF" />
<rect x="75" y="26" width="1" height="2" fill="#FFFFFF" />
<rect x="86" y="26" width="1" height="1" fill="#FF0048" />
<rect x="88" y="26" width="1" height="1" fill="#FF0048" />
<rect x="90" y="26" width="1" height="1" fill="#3C3D0A" />
<rect x="102" y="26" width="1" height="1" fill="#FF0048" />
<rect x="104" y="26" width="1" height="1" fill="#FF0048" />
<rect x="106" y="26" width="1" height="1" fill="#FFFFFF" />
<rect x="40" y="27" width="1" height="1" fill="#FF0048" />
<rect x="42" y="27" width="1" height="1" fill="#3C3D0A" />
<rect x="56" y="27" width="1" height="1" fill="#FF0048" />
<rect x="58" y="27" width="1" height="1" fill="#3C3D0A" />
<rect x="72" y="27" width="1" height="1" fill="#FF0048" />
<rect x="74" y="27" width="1" height="1" fill="#3C3D0A" />
</svg>