<?xml version="1.0" encoding="UTF-8" ?>
<svg version="1.1" width="112" height="32" xmlns="http://www.w3.org/2000/svg" shape-rendering="crispEdges">
<rect x="36" y="0" width="1" height="1" fill="#FF0048" />
<rect x="101" y="0" width="1" height="1" fill="#FF0048" />
<rect x="4" y="1" width="1" height="1" fill="#FF0048" />
<rect x="11" y="1" width="1" height="1" fill="#FF0048" />
<rect x="21" y="1" width="1" height="4" fill="#FF0048" />
<rect x="33" y="1" width="1" height="1" fill="#FF0048" />
<rect x="40" y="1" width="1" height="2" fill="#FF0048" />
<rect x="56" y="1" width="1" height="1" fill="#FF0048" />
<rect x="69" y="1" width="1" height="1" fill="#FF0048" />
<rect x="88" y="1" width="2" height="1" fill="#FF0048" />
<rect x="103" y="1" width="2" height="1" fill="#FF0048" />
<rect x="107" y="1" width="1" height="1" fill="#FF0048" />
<rect x="6" y="2" width="3" height="1" fill="#FF0048" />
<rect x="19" y="2" width="1" height="1" fill="#FF0048" />
<rect x="22" y="2" width="3" height="1" fill="#FF0048" />
<rect x="34" y="2" width="2" height="1" fill="#FF0048" />
<rect x="37" y="2" width="3" height="1" fill="#FF0048" />
<rect x="50" y="2" width="1" height="1" fill="#FF0048" />
<rect x="53" y="2" width="3" height="1" fill="#FF0048" />
<rect x="64" y="2" width="1" height="1" fill="#FF0048" />
<rect x="71" y="2" width="2" height="1" fill="#FF0048" />
<rect x="75" y="2" width="1" height="1" fill="#FF0048" />
<rect x="81" y="2" width="1" height="1" fill="#FF0048" />
<rect x="86" y="2" width="2" height="1" fill="#FF0048" />
<rect x="88" y="2" width="2" height="1" fill="#DB0007" />
<rect x="90" y="2" width="1" height="1" fill="#FF0048" />
<rect x="101" y="2" width="2" height="1" fill="#FF0048" />
<rect x="103" y="2" width="2" height="1" fill="#DB0007" />
<rect x="105" y="2" width="2" height="1" fill="#FF0048" />
<rect x="4" y="3" width="2" height="1" fill="#FF0048" />
<rect x="6" y="3" width="1" height="1" fill="#B52603" />
<rect x="7" y="3" width="2" height="1" fill="#DB0007" />
<rect x="9" y="3" width="2" height="1" fill="#FF0048" />
<rect x="20" y="3" width="1" height="1" fill="#FF0048" />
<rect x="22" y="3" width="1" height="1" fill="#B52603" />
<rect x="23" y="3" width="2" height="1" fill="#DB0007" />
<rect x="25" y="3" width="2" height="1" fill="#FF0048" />
<rect x="35" y="3" width="2" height="1" fill="#FF0048" />
<rect x="37" y="3" width="1" height="1" fill="#DB0007" />
<rect x="38" y="3" width="1" height="1" fill="#B52603" />
<rect x="39" y="3" width="2" height="1" fill="#DB0007" />
<rect x="41" y="3" width="2" height="1" fill="#FF0048" />
<rect x="51" y="3" width="2" height="1" fill="#FF0048" />
<rect x="53" y="3" width="1" height="1" fill="#DB0007" />
<rect x="54" y="3" width="1" height="1" fill="#B52603" />
<rect x="55" y="3" width="2" height="1" fill="#DB0007" />
<rect x="57" y="3" width="2" height="1" fill="#FF0048" />
<rect x="66" y="3" width="1" height="1" fill="#FF0048" />
<rect x="69" y="3" width="2" height="1" fill="#FF0048" />
<rect x="71" y="3" width="2" height="1" fill="#DB0007" />
<rect x="73" y="3" width="2" height="1" fill="#FF0048" />
<rect x="83" y="3" width="1" height="1" fill="#FF0048" />
<rect x="85" y="3" width="2" height="1" fill="#FF0048" />
<rect x="87" y="3" width="1" height="1" fill="#DB0007" />
<rect x="88" y="3" width="1" height="1" fill="#B52603" />
<rect x="89" y="3" width="3" height="1" fill="#FFFFFF" />
<rect x="99" y="3" width="2" height="1" fill="#FF0048" />
<rect x="101" y="3" width="1" height="1" fill="#DB0007" />
<rect x="102" y="3" width="2" height="1" fill="#B52603" />
<rect x="104" y="3" width="1" height="1" fill="#732F0D" />
<rect x="105" y="3" width="3" height="1" fill="#FFFFFF" />
<rect x="108" y="3" width="1" height="3" fill="#FF0048" />
<rect x="5" y="4" width="1" height="1" fill="#FF0048" />
<rect x="6" y="4" width="1" height="1" fill="#DB0007" />
<rect x="7" y="4" width="1" height="1" fill="#B52603" />
<rect x="8" y="4" width="1" height="1" fill="#732F0D" />
<rect x="9" y="4" width="3" height="1" fill="#FFFFFF" />
<rect x="22" y="4" width="1" height="1" fill="#DB0007" />
<rect x="23" y="4" width="1" height="1" fill="#B52603" />
<rect x="24" y="4" width="1" height="1" fill="#732F0D" />
<rect x="25" y="4" width="3" height="1" fill="#FFFFFF" />
<rect x="36" y="4" width="2" height="1" fill="#FF0048" />
<rect x="38" y="4" width="1" height="1" fill="#DB0007" />
<rect x="39" y="4" width="1" height="1" fill="#B52603" />
<rect x="40" y="4" width="1" height="1" fill="#732F0D" />
<rect x="41" y="4" width="3" height="1" fill="#FFFFFF" />
<rect x="49" y="4" width="1" height="1" fill="#FF0048" />
<rect x="52" y="4" width="2" height="1" fill="#FF0048" />
<rect x="54" y="4" width="1" height="1" fill="#DB0007" />
<rect x="55" y="4" width="1" height="1" fill="#B52603" />
<rect x="56" y="4" width="1" height="1" fill="#732F0D" />
<rect x="57" y="4" width="3" height="1" fill="#FFFFFF" />
<rect x="67" y="4" width="2" height="1" fill="#FF0048" />
<rect x="69" y="4" width="1" height="1" fill="#DB0007" />
<rect x="70" y="4" width="2" height="1" fill="#B52603" />
<rect x="72" y="4" width="1" height="1" fill="#732F0D" />
<rect x="73" y="4" width="3" height="1" fill="#FFFFFF" />
<rect x="84" y="4" width="1" height="2" fill="#FF0048" />
<rect x="85" y="4" width="2" height="1" fill="#DB0007" />
<rect x="87" y="4" width="1" height="1" fill="#B52603" />
<rect x="88" y="4" width="1" height="2" fill="#FFFFFF" />
<rect x="89" y="4" width="1" height="1" fill="#3C3D0A" />
<rect x="90" y="4" width="1" height="2" fill="#FFFFFF" />
<rect x="91" y="4" width="1" height="1" fill="#3C3D0A" />
<rect x="92" y="4" width="1" height="2" fill="#FF0048" />
<rect x="97" y="4" width="1" height="1" fill="#FF0048" />
<rect x="100" y="4" width="2" height="1" fill="#FF0048" />
<rect x="102" y="4" width="2" height="1" fill="#DB0007" />
<rect x="104" y="4" width="1" height="2" fill="#FFFFFF" />
<rect x="105" y="4" width="1" height="1" fill="#3C3D0A" />
<rect x="106" y="4" width="1" height="2" fill="#FFFFFF" />
<rect x="107" y="4" width="1" height="1" fill="#3C3D0A" />
<rect x="3" y="5" width="1" height="1" fill="#FF0048" />
<rect x="6" y="5" width="1" height="1" fill="#FF0048" />
<rect x="7" y="5" width="1" height="1" fill="#DB0007" />
<rect x="8" y="5" width="1" height="2" fill="#FFFFFF" />
<rect x="9" y="5" width="1" height="1" fill="#3C3D0A" />
<rect x="10" y="5" width="1" height="2" fill="#FFFFFF" />
<rect x="11" y="5" width="1" height="1" fill="#3C3D0A" />
<rect x="12" y="5" width="1" height="2" fill="#FF0048" />
<rect x="19" y="5" width="1" height="1" fill="#FF0048" />
<rect x="22" y="5" width="1" height="1" fill="#FF0048" />
<rect x="23" y="5" width="1" height="1" fill="#DB0007" />
<rect x="24" y="5" width="1" height="2" fill="#FFFFFF" />
<rect x="25" y="5" width="1" height="1" fill="#3C3D0A" />
<rect x="26" y="5" width="1" height="2" fill="#FFFFFF" />
<rect x="27" y="5" width="1" height="1" fill="#3C3D0A" />
<rect x="28" y="5" width="1" height="2" fill="#FF0048" />
<rect x="33" y="5" width="1" height="1" fill="#FF0048" />
<rect x="35" y="5" width="1" height="1" fill="#FF0048" />
<rect x="38" y="5" width="1" height="1" fill="#FF0048" />
<rect x="39" y="5" width="1" height="1" fill="#DB0007" />
<rect x="40" y="5" width="1" height="2" fill="#FFFFFF" />
<rect x="41" y="5" width="1" height="1" fill="#3C3D0A" />
<rect x="42" y="5" width="1" height="2" fill="#FFFFFF" />
<rect x="43" y="5" width="1" height="1" fill="#3C3D0A" />
<rect x="44" y="5" width="1" height="2" fill="#FF0048" />
<rect x="51" y="5" width="1" height="1" fill="#FF0048" />
<rect x="54" y="5" width="1" height="1" fill="#FF0048" />
<rect x="55" y="5" width="1" height="1" fill="#DB0007" />
<rect x="56" y="5" width="1" height="2" fill="#FFFFFF" />
<rect x="57" y="5" width="1" height="1" fill="#3C3D0A" />
<rect x="58" y="5" width="1" height="2" fill="#FFFFFF" />
<rect x="59" y="5" width="1" height="1" fill="#3C3D0A" />
<rect x="60" y="5" width="1" height="2" fill="#FF0048" />
<rect x="65" y="5" width="1" height="1" fill="#FF0048" />
<rect x="68" y="5" width="2" height="1" fill="#FF0048" />
<rect x="70" y="5" width="2" height="1" fill="#DB0007" />
<rect x="72" y="5" width="1" height="2" fill="#FFFFFF" />
<rect x="73" y="5" width="1" height="1" fill="#3C3D0A" />
<rect x="74" y="5" width="1" height="2" fill="#FFFFFF" />
<rect x="75" y="5" width="1" height="1" fill="#3C3D0A" />
<rect x="76" y="5" width="1" height="2" fill="#FF0048" />
<rect x="83" y="5" width="1" height="1" fill="#FF0048" />
<rect x="85" y="5" width="2" height="1" fill="#FF0048" />
<rect x="87" y="5" width="1" height="1" fill="#DB0007" />
<rect x="89" y="5" width="1" height="2" fill="#FFFFFF" />
<rect x="91" y="5" width="1" height="2" fill="#FFFFFF" />
<rect x="102" y="5" width="2" height="1" fill="#FF0048" />
<rect x="105" y="5" width="1" height="2" fill="#FFFFFF" />
<rect x="107" y="5" width="1" height="2" fill="#FFFFFF" />
<rect x="7" y="6" width="1" height="1" fill="#FF0048" />
<rect x="9" y="6" width="1" height="2" fill="#FFFFFF" />
<rect x="11" y="6" width="1" height="2" fill="#FFFFFF" />
<rect x="21" y="6" width="1" height="1" fill="#FF0048" />
<rect x="23" y="6" width="1" height="1" fill="#FF0048" />
<rect x="25" y="6" width="1" height="2" fill="#FFFFFF" />
<rect x="27" y="6" width="1" height="2" fill="#FFFFFF" />
<rect x="39" y="6" width="1" height="1" fill="#FF0048" />
<rect x="41" y="6" width="1" height="2" fill="#FFFFFF" />
<rect x="43" y="6" width="1" height="3" fill="#FFFFFF" />
<rect x="55" y="6" width="1" height="1" fill="#FF0048" />
<rect x="57" y="6" width="1" height="2" fill="#FFFFFF" />
<rect x="59" y="6" width="1" height="3" fill="#FFFFFF" />
<rect x="70" y="6" width="2" height="1" fill="#FF0048" />
<rect x="73" y="6" width="1" height="2" fill="#FFFFFF" />
<rect x="75" y="6" width="1" height="3" fill="#FFFFFF" />
<rect x="85" y="6" width="1" height="1" fill="#FF0048" />
<rect x="88" y="6" width="1" height="1" fill="#FF0048" />
<rect x="90" y="6" width="1" height="1" fill="#3C3D0A" />
<rect x="93" y="6" width="1" height="1" fill="#FF0048" />
<rect x="101" y="6" width="1" height="1" fill="#FF0048" />
<rect x="104" y="6" width="1" height="1" fill="#FF0048" />
<rect x="106" y="6" width="1" height="1" fill="#3C3D0A" />
<rect x="6" y="7" width="1" height="1" fill="#FF0048" />
<rect x="8" y="7" width="1" height="1" fill="#FF0048" />
<rect x="10" y="7" width="1" height="1" fill="#3C3D0A" />
<rect x="24" y="7" width="1" height="1" fill="#FF0048" />
<rect x="26" y="7" width="1" height="1" fill="#3C3D0A" />
<rect x="40" y="7" width="1" height="1" fill="#FF0048" />
<rect x="42" y="7" width="1" height="1" fill="#3C3D0A" />
<rect x="56" y="7" width="1" height="1" fill="#FF0048" />
<rect x="58" y="7" width="1" height="1" fill="#3C3D0A" />
<rect x="72" y="7" width="1" height="1" fill="#FF0048" />
<rect x="74" y="7" width="1" height="1" fill="#3C3D0A" />
<rect x="87" y="7" width="1" height="1" fill="#FF0048" />
<rect x="98" y="7" width="1" height="1" fill="#FF0048" />
<rect x="38" y="8" width="3" height="1" fill="#FFFFFF" />
<rect x="41" y="8" width="1" height="1" fill="#564215" />
<rect x="42" y="8" width="1" height="1" fill="#FFFFFF" />
<rect x="54" y="8" width="3" height="1" fill="#FFFFFF" />
<rect x="57" y="8" width="1" height="1" fill="#564215" />
<rect x="58" y="8" width="1" height="1" fill="#FFFFFF" />
<rect x="70" y="8" width="3" height="1" fill="#FFFFFF" />
<rect x="73" y="8" width="1" height="1" fill="#564215" />
<rect x="74" y="8" width="1" height="1" fill="#FFFFFF" />
<rect x="83" y="8" width="1" height="1" fill="#FF0048" />
<rect x="86" y="8" width="3" height="1" fill="#FFFFFF" />
<rect x="89" y="8" width="1" height="1" fill="#564215" />
<rect x="90" y="8" width="2" height="1" fill="#FFFFFF" />
<rect x="102" y="8" width="3" height="2" fill="#FFFFFF" />
<rect x="105" y="8" width="1" height="2" fill="#564215" />
<rect x="106" y="8" width="2" height="2" fill="#FFFFFF" />
<rect x="6" y="9" width="3" height="1" fill="#FFFFFF" />
<rect x="9" y="9" width="1" height="1" fill="#564215" />
<rect x="10" y="9" width="2" height="1" fill="#FFFFFF" />
<rect x="22" y="9" width="3" height="1" fill="#FFFFFF" />
<rect x="25" y="9" width="1" height="1" fill="#564215" />
<rect x="26" y="9" width="2" height="1" fill="#FFFFFF" />
<rect x="39" y="9" width="2" height="1" fill="#564215" />
<rect x="41" y="9" width="1" height="3" fill="#FFFFFF" />
<rect x="42" y="9" width="1" height="1" fill="#564215" />
<rect x="55" y="9" width="2" height="1" fill="#564215" />
<rect x="57" y="9" width="1" height="2" fill="#FFFFFF" />
<rect x="58" y="9" width="1" height="1" fill="#564215" />
<rect x="71" y="9" width="2" height="1" fill="#564215" />
<rect x="73" y="9" width="1" height="2" fill="#FFFFFF" />
<rect x="74" y="9" width="1" height="1" fill="#564215" />
<rect x="87" y="9" width="2" height="1" fill="#564215" />
<rect x="89" y="9" width="1" height="2" fill="#FFFFFF" />
<rect x="90" y="9" width="1" height="1" fill="#564215" />
<rect x="7" y="10" width="2" height="1" fill="#564215" />
<rect x="9" y="10" width="1" height="2" fill="#FFFFFF" />
<rect x="10" y="10" width="1" height="1" fill="#564215" />
<rect x="23" y="10" width="2" height="1" fill="#564215" />
<rect x="25" y="10" width="1" height="2" fill="#FFFFFF" />
<rect x="26" y="10" width="1" height="1" fill="#564215" />
<rect x="38" y="10" width="3" height="1" fill="#FFFFFF" />
<rect x="42" y="10" width="2" height="1" fill="#FFFFFF" />
<rect x="54" y="10" width="3" height="1" fill="#FFFFFF" />
<rect x="58" y="10" width="2" height="1" fill="#FFFFFF" />
<rect x="70" y="10" width="3" height="1" fill="#FFFFFF" />
<rect x="74" y="10" width="2" height="1" fill="#FFFFFF" />
<rect x="86" y="10" width="3" height="1" fill="#FFFFFF" />
<rect x="90" y="10" width="2" height="1" fill="#FFFFFF" />
<rect x="103" y="10" width="2" height="1" fill="#564215" />
<rect x="105" y="10" width="1" height="2" fill="#FFFFFF" />
<rect x="106" y="10" width="1" height="1" fill="#564215" />
<rect x="108" y="10" width="2" height="2" fill="#B52603" />
<rect x="3" y="11" width="2" height="2" fill="#FF0048" />
<rect x="6" y="11" width="3" height="1" fill="#FFFFFF" />
<rect x="10" y="11" width="2" height="1" fill="#FFFFFF" />
<rect x="12" y="11" width="2" height="2" fill="#B52603" />
<rect x="19" y="11" width="2" height="2" fill="#FF0048" />
<rect x="22" y="11" width="3" height="1" fill="#FFFFFF" />
<rect x="26" y="11" width="2" height="1" fill="#FFFFFF" />
<rect x="28" y="11" width="2" height="2" fill="#B52603" />
<rect x="35" y="11" width="2" height="2" fill="#FF0048" />
<rect x="39" y="11" width="1" height="1" fill="#564215" />
<rect x="40" y="11" width="1" height="2" fill="#FFFFFF" />
<rect x="42" y="11" width="1" height="2" fill="#FFFFFF" />
<rect x="44" y="11" width="2" height="2" fill="#B52603" />
<rect x="51" y="11" width="2" height="2" fill="#FF0048" />
<rect x="55" y="11" width="1" height="1" fill="#564215" />
<rect x="56" y="11" width="1" height="1" fill="#FFFFFF" />
<rect x="57" y="11" width="1" height="2" fill="#564215" />
<rect x="58" y="11" width="1" height="1" fill="#FFFFFF" />
<rect x="60" y="11" width="2" height="2" fill="#B52603" />
<rect x="67" y="11" width="2" height="2" fill="#FF0048" />
<rect x="71" y="11" width="1" height="1" fill="#564215" />
<rect x="72" y="11" width="1" height="1" fill="#FFFFFF" />
<rect x="73" y="11" width="1" height="2" fill="#564215" />
<rect x="74" y="11" width="1" height="1" fill="#FFFFFF" />
<rect x="76" y="11" width="2" height="2" fill="#B52603" />
<rect x="83" y="11" width="2" height="2" fill="#FF0048" />
<rect x="87" y="11" width="1" height="1" fill="#564215" />
<rect x="88" y="11" width="1" height="1" fill="#FFFFFF" />
<rect x="89" y="11" width="1" height="2" fill="#564215" />
<rect x="90" y="11" width="1" height="1" fill="#FFFFFF" />
<rect x="92" y="11" width="2" height="2" fill="#B52603" />
<rect x="99" y="11" width="2" height="2" fill="#FF0048" />
<rect x="102" y="11" width="3" height="1" fill="#FFFFFF" />
<rect x="106" y="11" width="2" height="1" fill="#FFFFFF" />
<rect x="7" y="12" width="1" height="1" fill="#564215" />
<rect x="8" y="12" width="1" height="1" fill="#FFFFFF" />
<rect x="9" y="12" width="1" height="2" fill="#564215" />
<rect x="10" y="12" width="1" height="1" fill="#FFFFFF" />
<rect x="23" y="12" width="1" height="1" fill="#564215" />
<rect x="24" y="12" width="1" height="1" fill="#FFFFFF" />
<rect x="25" y="12" width="1" height="2" fill="#564215" />
<rect x="26" y="12" width="1" height="1" fill="#FFFFFF" />
<rect x="38" y="12" width="2" height="2" fill="#FFFFFF" />
<rect x="41" y="12" width="1" height="2" fill="#564215" />
<rect x="43" y="12" width="1" height="2" fill="#FFFFFF" />
<rect x="54" y="12" width="2" height="1" fill="#FFFFFF" />
<rect x="56" y="12" width="1" height="2" fill="#564215" />
<rect x="58" y="12" width="1" height="2" fill="#564215" />
<rect x="59" y="12" width="1" height="1" fill="#FFFFFF" />
<rect x="70" y="12" width="2" height="1" fill="#FFFFFF" />
<rect x="72" y="12" width="1" height="2" fill="#564215" />
<rect x="74" y="12" width="1" height="2" fill="#564215" />
<rect x="75" y="12" width="1" height="1" fill="#FFFFFF" />
<rect x="86" y="12" width="2" height="1" fill="#FFFFFF" />
<rect x="88" y="12" width="1" height="2" fill="#564215" />
<rect x="90" y="12" width="1" height="2" fill="#564215" />
<rect x="91" y="12" width="1" height="1" fill="#FFFFFF" />
<rect x="103" y="12" width="1" height="1" fill="#564215" />
<rect x="104" y="12" width="1" height="1" fill="#FFFFFF" />
<rect x="105" y="12" width="1" height="2" fill="#564215" />
<rect x="106" y="12" width="1" height="1" fill="#FFFFFF" />
<rect x="6" y="13" width="2" height="1" fill="#FFFFFF" />
<rect x="8" y="13" width="1" height="2" fill="#564215" />
<rect x="10" y="13" width="1" height="2" fill="#564215" />
<rect x="11" y="13" width="1" height="1" fill="#FFFFFF" />
<rect x="22" y="13" width="2" height="1" fill="#FFFFFF" />
<rect x="24" y="13" width="1" height="2" fill="#564215" />
<rect x="26" y="13" width="1" height="2" fill="#564215" />
<rect x="27" y="13" width="1" height="1" fill="#FFFFFF" />
<rect x="40" y="13" width="1" height="2" fill="#564215" />
<rect x="42" y="13" width="1" height="2" fill="#564215" />
<rect x="55" y="13" width="1" height="2" fill="#564215" />
<rect x="71" y="13" width="1" height="2" fill="#564215" />
<rect x="87" y="13" width="1" height="2" fill="#564215" />
<rect x="102" y="13" width="2" height="1" fill="#FFFFFF" />
<rect x="104" y="13" width="1" height="2" fill="#564215" />
<rect x="106" y="13" width="1" height="2" fill="#564215" />
<rect x="107" y="13" width="1" height="1" fill="#FFFFFF" />
<rect x="7" y="14" width="1" height="2" fill="#564215" />
<rect x="23" y="14" width="1" height="2" fill="#564215" />
<rect x="39" y="14" width="1" height="2" fill="#564215" />
<rect x="103" y="14" width="1" height="2" fill="#564215" />
<rect x="4" y="16" width="1" height="1" fill="#FF0048" />
<rect x="7" y="16" width="1" height="2" fill="#FF0048" />
<rect x="16" y="16" width="1" height="1" fill="#FF0048" />
<rect x="37" y="16" width="2" height="1" fill="#FF0048" />
<rect x="54" y="16" width="3" height="1" fill="#FF0048" />
<rect x="69" y="16" width="1" height="1" fill="#FF0048" />
<rect x="1" y="17" width="1" height="1" fill="#FF0048" />
<rect x="5" y="17" width="2" height="1" fill="#FF0048" />
<rect x="8" y="17" width="1" height="1" fill="#FF0048" />
<rect x="20" y="17" width="1" height="1" fill="#FF0048" />
<rect x="22" y="17" width="2" height="1" fill="#FF0048" />
<rect x="35" y="17" width="1" height="1" fill="#FF0048" />
<rect x="37" y="17" width="1" height="1" fill="#FF0048" />
<rect x="38" y="17" width="1" height="1" fill="#DB0007" />
<rect x="39" y="17" width="2" height="1" fill="#FF0048" />
<rect x="52" y="17" width="2" height="1" fill="#FF0048" />
<rect x="55" y="17" width="1" height="2" fill="#FF0048" />
<rect x="56" y="17" width="1" height="1" fill="#DB0007" />
<rect x="57" y="17" width="1" height="1" fill="#FF0048" />
<rect x="59" y="17" width="1" height="1" fill="#FF0048" />
<rect x="70" y="17" width="2" height="1" fill="#FF0048" />
<rect x="74" y="17" width="1" height="1" fill="#FF0048" />
<rect x="84" y="17" width="1" height="1" fill="#FF0048" />
<rect x="91" y="17" width="1" height="1" fill="#FF0048" />
<rect x="100" y="17" width="1" height="1" fill="#FF0048" />
<rect x="107" y="17" width="1" height="1" fill="#FF0048" />
<rect x="3" y="18" width="2" height="1" fill="#FF0048" />
<rect x="5" y="18" width="4" height="1" fill="#DB0007" />
<rect x="9" y="18" width="2" height="1" fill="#FF0048" />
<rect x="21" y="18" width="1" height="1" fill="#FF0048" />
<rect x="22" y="18" width="2" height="1" fill="#DB0007" />
<rect x="24" y="18" width="3" height="1" fill="#FF0048" />
<rect x="38" y="18" width="1" height="5" fill="#FF0048" />
<rect x="39" y="18" width="1" height="2" fill="#DB0007" />
<rect x="40" y="18" width="3" height="1" fill="#FF0048" />
<rect x="50" y="18" width="1" height="1" fill="#FF0048" />
<rect x="56" y="18" width="1" height="2" fill="#B52603" />
<rect x="57" y="18" width="1" height="1" fill="#DB0007" />
<rect x="58" y="18" width="1" height="1" fill="#FF0048" />
<rect x="68" y="18" width="1" height="1" fill="#FF0048" />
<rect x="70" y="18" width="1" height="1" fill="#FF0048" />
<rect x="71" y="18" width="1" height="4" fill="#B52603" />
<rect x="72" y="18" width="2" height="1" fill="#FF0048" />
<rect x="76" y="18" width="1" height="1" fill="#FF0048" />
<rect x="86" y="18" width="3" height="1" fill="#FF0048" />
<rect x="102" y="18" width="3" height="1" fill="#FF0048" />
<rect x="4" y="19" width="1" height="1" fill="#FF0048" />
<rect x="5" y="19" width="1" height="1" fill="#DB0007" />
<rect x="6" y="19" width="1" height="1" fill="#B52603" />
<rect x="7" y="19" width="1" height="1" fill="#732F0D" />
<rect x="8" y="19" width="1" height="1" fill="#B52603" />
<rect x="9" y="19" width="1" height="1" fill="#DB0007" />
<rect x="10" y="19" width="2" height="1" fill="#FF0048" />
<rect x="19" y="19" width="2" height="1" fill="#FF0048" />
<rect x="21" y="19" width="1" height="1" fill="#DB0007" />
<rect x="22" y="19" width="1" height="1" fill="#B52603" />
<rect x="23" y="19" width="1" height="1" fill="#732F0D" />
<rect x="24" y="19" width="1" height="1" fill="#B52603" />
<rect x="25" y="19" width="1" height="1" fill="#DB0007" />
<rect x="26" y="19" width="2" height="1" fill="#FF0048" />
<rect x="36" y="19" width="1" height="1" fill="#FF0048" />
<rect x="40" y="19" width="1" height="1" fill="#B52603" />
<rect x="41" y="19" width="1" height="1" fill="#DB0007" />
<rect x="42" y="19" width="2" height="1" fill="#FF0048" />
<rect x="54" y="19" width="1" height="4" fill="#FF0048" />
<rect x="55" y="19" width="1" height="3" fill="#B52603" />
<rect x="57" y="19" width="1" height="1" fill="#B52603" />
<rect x="58" y="19" width="1" height="1" fill="#DB0007" />
<rect x="59" y="19" width="1" height="2" fill="#FF0048" />
<rect x="69" y="19" width="1" height="2" fill="#FF0048" />
<rect x="70" y="19" width="1" height="1" fill="#B52603" />
<rect x="72" y="19" width="1" height="1" fill="#B52603" />
<rect x="73" y="19" width="2" height="1" fill="#FF0048" />
<rect x="84" y="19" width="2" height="1" fill="#FF0048" />
<rect x="86" y="19" width="1" height="1" fill="#B52603" />
<rect x="87" y="19" width="2" height="1" fill="#DB0007" />
<rect x="89" y="19" width="2" height="1" fill="#FF0048" />
<rect x="100" y="19" width="2" height="1" fill="#FF0048" />
<rect x="102" y="19" width="1" height="1" fill="#B52603" />
<rect x="103" y="19" width="2" height="1" fill="#DB0007" />
<rect x="105" y="19" width="2" height="1" fill="#FF0048" />
<rect x="3" y="20" width="1" height="1" fill="#FF0048" />
<rect x="5" y="20" width="1" height="1" fill="#FF0048" />
<rect x="6" y="20" width="1" height="1" fill="#DB0007" />
<rect x="7" y="20" width="1" height="1" fill="#B52603" />
<rect x="8" y="20" width="1" height="1" fill="#732F0D" />
<rect x="9" y="20" width="3" height="1" fill="#FFFFFF" />
<rect x="21" y="20" width="1" height="1" fill="#FF0048" />
<rect x="22" y="20" width="1" height="1" fill="#DB0007" />
<rect x="23" y="20" width="1" height="1" fill="#B52603" />
<rect x="24" y="20" width="1" height="1" fill="#732F0D" />
<rect x="25" y="20" width="3" height="1" fill="#FFFFFF" />
<rect x="37" y="20" width="1" height="1" fill="#FF0048" />
<rect x="39" y="20" width="1" height="1" fill="#732F0D" />
<rect x="40" y="20" width="1" height="1" fill="#DB0007" />
<rect x="41" y="20" width="1" height="1" fill="#B52603" />
<rect x="42" y="20" width="1" height="1" fill="#DB0007" />
<rect x="43" y="20" width="1" height="1" fill="#FF0048" />
<rect x="52" y="20" width="1" height="1" fill="#FF0048" />
<rect x="56" y="20" width="2" height="1" fill="#732F0D" />
<rect x="58" y="20" width="1" height="1" fill="#B52603" />
<rect x="70" y="20" width="1" height="3" fill="#FF0048" />
<rect x="72" y="20" width="2" height="1" fill="#732F0D" />
<rect x="74" y="20" width="1" height="1" fill="#B52603" />
<rect x="75" y="20" width="1" height="1" fill="#FF0048" />
<rect x="85" y="20" width="1" height="1" fill="#FF0048" />
<rect x="86" y="20" width="1" height="1" fill="#DB0007" />
<rect x="87" y="20" width="1" height="1" fill="#B52603" />
<rect x="88" y="20" width="1" height="1" fill="#732F0D" />
<rect x="89" y="20" width="3" height="1" fill="#FFFFFF" />
<rect x="101" y="20" width="1" height="1" fill="#FF0048" />
<rect x="102" y="20" width="1" height="1" fill="#DB0007" />
<rect x="103" y="20" width="1" height="1" fill="#B52603" />
<rect x="104" y="20" width="1" height="1" fill="#732F0D" />
<rect x="105" y="20" width="3" height="1" fill="#3C3D0A" />
<rect x="6" y="21" width="1" height="1" fill="#FF0048" />
<rect x="7" y="21" width="1" height="1" fill="#DB0007" />
<rect x="8" y="21" width="1" height="2" fill="#FFFFFF" />
<rect x="9" y="21" width="1" height="1" fill="#3C3D0A" />
<rect x="10" y="21" width="1" height="2" fill="#FFFFFF" />
<rect x="11" y="21" width="1" height="1" fill="#3C3D0A" />
<rect x="12" y="21" width="1" height="2" fill="#FF0048" />
<rect x="22" y="21" width="1" height="1" fill="#FF0048" />
<rect x="23" y="21" width="1" height="1" fill="#DB0007" />
<rect x="24" y="21" width="1" height="2" fill="#FFFFFF" />
<rect x="25" y="21" width="1" height="1" fill="#3C3D0A" />
<rect x="26" y="21" width="1" height="2" fill="#FFFFFF" />
<rect x="27" y="21" width="1" height="1" fill="#3C3D0A" />
<rect x="28" y="21" width="1" height="2" fill="#FF0048" />
<rect x="33" y="21" width="1" height="1" fill="#FF0048" />
<rect x="39" y="21" width="1" height="1" fill="#B52603" />
<rect x="40" y="21" width="1" height="1" fill="#732F0D" />
<rect x="41" y="21" width="3" height="1" fill="#FFFFFF" />
<rect x="45" y="21" width="1" height="1" fill="#FF0048" />
<rect x="56" y="21" width="1" height="1" fill="#732F0D" />
<rect x="57" y="21" width="3" height="1" fill="#FFFFFF" />
<rect x="72" y="21" width="1" height="1" fill="#732F0D" />
<rect x="73" y="21" width="3" height="1" fill="#FFFFFF" />
<rect x="83" y="21" width="1" height="1" fill="#FF0048" />
<rect x="86" y="21" width="1" height="1" fill="#FF0048" />
<rect x="87" y="21" width="1" height="1" fill="#DB0007" />
<rect x="88" y="21" width="1" height="2" fill="#FFFFFF" />
<rect x="89" y="21" width="1" height="1" fill="#3C3D0A" />
<rect x="90" y="21" width="1" height="2" fill="#FFFFFF" />
<rect x="91" y="21" width="1" height="1" fill="#3C3D0A" />
<rect x="92" y="21" width="1" height="2" fill="#FF0048" />
<rect x="99" y="21" width="1" height="1" fill="#FF0048" />
<rect x="102" y="21" width="1" height="1" fill="#FF0048" />
<rect x="103" y="21" width="1" height="1" fill="#DB0007" />
<rect x="104" y="21" width="1" height="2" fill="#3C3D0A" />
<rect x="105" y="21" width="1" height="1" fill="#FFFFFF" />
<rect x="106" y="21" width="1" height="2" fill="#3C3D0A" />
<rect x="107" y="21" width="1" height="1" fill="#FFFFFF" />
<rect x="108" y="21" width="1" height="2" fill="#FF0048" />
<rect x="4" y="22" width="1" height="1" fill="#FF0048" />
<rect x="7" y="22" width="1" height="1" fill="#FF0048" />
<rect x="9" y="22" width="1" height="2" fill="#FFFFFF" />
<rect x="11" y="22" width="1" height="2" fill="#FFFFFF" />
<rect x="18" y="22" width="1" height="1" fill="#FF0048" />
<rect x="23" y="22" width="1" height="1" fill="#FF0048" />
<rect x="25" y="22" width="1" height="2" fill="#FFFFFF" />
<rect x="27" y="22" width="1" height="2" fill="#FFFFFF" />
<rect x="39" y="22" width="1" height="1" fill="#DB0007" />
<rect x="40" y="22" width="1" height="2" fill="#FFFFFF" />
<rect x="41" y="22" width="1" height="1" fill="#3C3D0A" />
<rect x="42" y="22" width="1" height="2" fill="#FFFFFF" />
<rect x="43" y="22" width="1" height="1" fill="#3C3D0A" />
<rect x="44" y="22" width="1" height="2" fill="#FF0048" />
<rect x="55" y="22" width="1" height="1" fill="#DB0007" />
<rect x="56" y="22" width="1" height="2" fill="#FFFFFF" />
<rect x="57" y="22" width="1" height="1" fill="#3C3D0A" />
<rect x="58" y="22" width="1" height="2" fill="#FFFFFF" />
<rect x="59" y="22" width="1" height="1" fill="#3C3D0A" />
<rect x="60" y="22" width="1" height="2" fill="#FF0048" />
<rect x="71" y="22" width="1" height="1" fill="#DB0007" />
<rect x="72" y="22" width="1" height="2" fill="#FFFFFF" />
<rect x="73" y="22" width="1" height="1" fill="#3C3D0A" />
<rect x="74" y="22" width="1" height="2" fill="#FFFFFF" />
<rect x="75" y="22" width="1" height="1" fill="#3C3D0A" />
<rect x="76" y="22" width="1" height="2" fill="#FF0048" />
<rect x="87" y="22" width="1" height="1" fill="#FF0048" />
<rect x="89" y="22" width="1" height="2" fill="#FFFFFF" />
<rect x="91" y="22" width="1" height="2" fill="#FFFFFF" />
<rect x="103" y="22" width="1" height="1" fill="#FF0048" />
<rect x="105" y="22" width="1" height="2" fill="#3C3D0A" />
<rect x="107" y="22" width="1" height="2" fill="#3C3D0A" />
<rect x="1" y="23" width="1" height="1" fill="#FF0048" />
<rect x="8" y="23" width="1" height="1" fill="#FF0048" />
<rect x="10" y="23" width="1" height="1" fill="#3C3D0A" />
<rect x="24" y="23" width="1" height="1" fill="#FF0048" />
<rect x="26" y="23" width="1" height="1" fill="#3C3D0A" />
<rect x="36" y="23" width="1" height="1" fill="#FF0048" />
<rect x="39" y="23" width="1" height="1" fill="#FF0048" />
<rect x="41" y="23" width="1" height="2" fill="#FFFFFF" />
<rect x="43" y="23" width="1" height="3" fill="#FFFFFF" />
<rect x="55" y="23" width="1" height="1" fill="#FF0048" />
<rect x="57" y="23" width="1" height="2" fill="#FFFFFF" />
<rect x="59" y="23" width="1" height="3" fill="#FFFFFF" />
<rect x="71" y="23" width="1" height="1" fill="#FF0048" />
<rect x="73" y="23" width="1" height="2" fill="#FFFFFF" />
<rect x="75" y="23" width="1" height="3" fill="#FFFFFF" />
<rect x="86" y="23" width="1" height="1" fill="#FF0048" />
<rect x="88" y="23" width="1" height="1" fill="#FF0048" />
<rect x="90" y="23" width="1" height="1" fill="#3C3D0A" />
<rect x="102" y="23" width="1" height="1" fill="#FF0048" />
<rect x="104" y="23" width="1" height="1" fill="#FF0048" />
<rect x="106" y="23" width="1" height="1" fill="#FFFFFF" />
<rect x="40" y="24" width="1" height="1" fill="#FF0048" />
<rect x="42" y="24" width="1" height="1" fill="#3C3D0A" />
<rect x="56" y="24" width="1" height="1" fill="#FF0048" />
<rect x="58" y="24" width="1" height="1" fill="#3C3D0A" />
<rect x="72" y="24" width="1" height="1" fill="#FF0048" />
<rect x="74" y="24" width="1" height="1" fill="#3C3D0A" />
<rect x="6" y="25" width="3" height="1" fill="#FFFFFF" />
<rect x="9" y="25" width="1" height="1" fill="#564215" />
<rect x="10" y="25" width="2" height="1" fill="#FFFFFF" />
<rect x="22" y="25" width="3" height="1" fill="#FFFFFF" />
<rect x="25" y="25" width="1" height="1" fill="#564215" />
<rect x="26" y="25" width="2" height="1" fill="#FFFFFF" />
<rect x="38" y="25" width="3" height="1" fill="#FFFFFF" />
<rect x="41" y="25" width="1" height="1" fill="#564215" />
<rect x="42" y="25" width="1" height="1" fill="#FFFFFF" />
<rect x="54" y="25" width="3" height="1" fill="#FFFFFF" />
<rect x="57" y="25" width="1" height="1" fill="#564215" />
<rect x="58" y="25" width="1" height="1" fill="#FFFFFF" />
<rect x="70" y="25" width="3" height="1" fill="#FFFFFF" />
<rect x="73" y="25" width="1" height="1" fill="#564215" />
<rect x="74" y="25" width="1" height="1" fill="#FFFFFF" />
<rect x="86" y="25" width="3" height="1" fill="#FFFFFF" />
<rect x="89" y="25" width="1" height="1" fill="#564215" />
<rect x="90" y="25" width="2" height="1" fill="#FFFFFF" />
<rect x="102" y="25" width="3" height="1" fill="#3C3D0A" />
<rect x="105" y="25" width="1" height="1" fill="#FFFFFF" />
<rect x="106" y="25" width="2" height="1" fill="#3C3D0A" />
<rect x="3" y="26" width="2" height="2" fill="#FF0048" />
<rect x="7" y="26" width="2" height="1" fill="#564215" />
<rect x="9" y="26" width="1" height="2" fill="#FFFFFF" />
<rect x="10" y="26" width="1" height="1" fill="#564215" />
<rect x="12" y="26" width="2" height="2" fill="#B52603" />
<rect x="19" y="26" width="2" height="2" fill="#FF0048" />
<rect x="23" y="26" width="2" height="1" fill="#564215" />
<rect x="25" y="26" width="1" height="2" fill="#FFFFFF" />
<rect x="26" y="26" width="1" height="1" fill="#564215" />
<rect x="28" y="26" width="2" height="2" fill="#B52603" />
<rect x="35" y="26" width="2" height="2" fill="#FF0048" />
<rect x="39" y="26" width="2" height="1" fill="#564215" />
<rect x="41" y="26" width="1" height="2" fill="#FFFFFF" />
<rect x="42" y="26" width="1" height="1" fill="#564215" />
<rect x="44" y="26" width="2" height="2" fill="#B52603" />
<rect x="51" y="26" width="2" height="2" fill="#FF0048" />
<rect x="55" y="26" width="2" height="1" fill="#564215" />
<rect x="57" y="26" width="1" height="2" fill="#FFFFFF" />
<rect x="58" y="26" width="1" height="1" fill="#564215" />
<rect x="60" y="26" width="2" height="2" fill="#B52603" />
<rect x="67" y="26" width="2" height="2" fill="#FF0048" />
<rect x="71" y="26" width="2" height="1" fill="#564215" />
<rect x="73" y="26" width="1" height="2" fill="#FFFFFF" />
<rect x="74" y="26" width="1" height="1" fill="#564215" />
<rect x="87" y="26" width="2" height="1" fill="#564215" />
<rect x="89" y="26" width="1" height="2" fill="#FFFFFF" />
<rect x="90" y="26" width="1" height="1" fill="#564215" />
<rect x="103" y="26" width="2" height="1" fill="#FFFFFF" />
<rect x="105" y="26" width="1" height="2" fill="#3C3D0A" />
<rect x="106" y="26" width="1" height="1" fill="#FFFFFF" />
<rect x="6" y="27" width="3" height="1" fill="#FFFFFF" />
<rect x="10" y="27" width="2" height="1" fill="#FFFFFF" />
<rect x="22" y="27" width="3" height="1" fill="#FFFFFF" />
<rect x="26" y="27" width="2" height="1" fill="#FFFFFF" />
<rect x="38" y="27" width="3" height="1" fill="#FFFFFF" />
<rect x="42" y="27" width="2" height="1" fill="#FFFFFF" />
<rect x="54" y="27" width="3" height="1" fill="#FFFFFF" />
<rect x="58" y="27" width="2" height="1" fill="#FFFFFF" />
<rect x="70" y="27" width="3" height="1" fill="#FFFFFF" />
<rect x="74" y="27" width="2" height="1" fill="#FFFFFF" />
<rect x="76" y="27" width="2" height="2" fill="#B52603" />
<rect x="83" y="27" width="2" height="2" fill="#FF0048" />
<rect x="86" y="27" width="3" height="1" fill="#FFFFFF" />
<rect x="90" y="27" width="2" height="1" fill="#FFFFFF" />
<rect x="92" y="27" width="2" height="2" fill="#B52603" />
<rect x="99" y="27" width="2" height="2" fill="#FF0048" />
<rect x="102" y="27" width="3" height="1" fill="#3C3D0A" />
<rect x="106" y="27" width="2" height="1" fill="#3C3D0A" />
<rect x="108" y="27" width="2" height="2" fill="#B52603" />
<rect x="7" y="28" width="1" height="1" fill="#564215" />
<rect x="8" y="28" width="1" height="1" fill="#FFFFFF" />
<rect x="9" y="28" width="1" height="2" fill="#564215" />
<rect x="10" y="28" width="1" height="1" fill="#FFFFFF" />
<rect x="23" y="28" width="1" height="1" fill="#564215" />
<rect x="24" y="28" width="1" height="1" fill="#FFFFFF" />
<rect x="25" y="28" width="1" height="2" fill="#564215" />
<rect x="26" y="28" width="1" height="1" fill="#FFFFFF" />
<rect x="39" y="28" width="1" height="1" fill="#564215" />
<rect x="40" y="28" width="1" height="1" fill="#FFFFFF" />
<rect x="41" y="28" width="1" height="2" fill="#564215" />
<rect x="42" y="28" width="1" height="1" fill="#FFFFFF" />
<rect x="55" y="28" width="1" height="1" fill="#564215" />
<rect x="56" y="28" width="1" height="1" fill="#FFFFFF" />
<rect x="57" y="28" width="1" height="2" fill="#564215" />
<rect x="58" y="28" width="1" height="1" fill="#FFFFFF" />
<rect x="71" y="28" width="1" height="1" fill="#564215" />
<rect x="72" y="28" width="1" height="1" fill="#FFFFFF" />
<rect x="73" y="28" width="1" height="2" fill="#564215" />
<rect x="74" y="28" width="1" height="1" fill="#FFFFFF" />
<rect x="87" y="28" width="1" height="1" fill="#564215" />
<rect x="88" y="28" width="1" height="1" fill="#FFFFFF" />
<rect x="89" y="28" width="1" height="2" fill="#564215" />
<rect x="90" y="28" width="1" height="1" fill="#FFFFFF" />
<rect x="103" y="28" width="1" height="1" fill="#FFFFFF" />
<rect x="104" y="28" width="1" height="1" fill="#3C3D0A" />
<rect x="105" y="28" width="1" height="2" fill="#FFFFFF" />
<rect x="106" y="28" width="1" height="1" fill="#3C3D0A" />
<rect x="6" y="29" width="2" height="1" fill="#FFFFFF" />
<rect x="8" y="29" width="1" height="2" fill="#564215" />
<rect x="10" y="29" width="1" height="2" fill="#564215" />
<rect x="11" y="29" width="1" height="1" fill="#FFFFFF" />
<rect x="22" y="29" width="2" height="1" fill="#FFFFFF" />
<rect x="24" y="29" width="1" height="2" fill="#564215" />
<rect x="26" y="29" width="1" height="2" fill="#564215" />
<rect x="27" y="29" width="1" height="1" fill="#FFFFFF" />
<rect x="38" y="29" width="2" height="1" fill="#FFFFFF" />
<rect x="40" y="29" width="1" height="2" fill="#564215" />
<rect x="42" y="29" width="1" height="2" fill="#564215" />
<rect x="43" y="29" width="1" height="1" fill="#FFFFFF" />
<rect x="54" y="29" width="2" height="1" fill="#FFFFFF" />
<rect x="56" y="29" width="1" height="2" fill="#564215" />
<rect x="58" y="29" width="1" height="2" fill="#564215" />
<rect x="59" y="29" width="1" height="1" fill="#FFFFFF" />
<rect x="70" y="29" width="2" height="1" fill="#FFFFFF" />
<rect x="72" y="29" width="1" height="2" fill="#564215" />
<rect x="74" y="29" width="1" height="2" fill="#564215" />
<rect x="75" y="29" width="1" height="1" fill="#FFFFFF" />
<rect x="86" y="29" width="2" height="1" fill="#FFFFFF" />
<rect x="88" y="29" width="1" height="2" fill="#564215" />
<rect x="90" y="29" width="1" height="2" fill="#564215" />
<rect x="91" y="29" width="1" height="1" fill="#FFFFFF" />
<rect x="102" y="29" width="2" height="1" fill="#3C3D0A" />
<rect x="104" y="29" width="1" height="2" fill="#FFFFFF" />
<rect x="106" y="29" width="1" height="2" fill="#FFFFFF" />
<rect x="107" y="29" width="1" height="1" fill="#3C3D0A" />
<rect x="7" y="30" width="1" height="2" fill="#564215" />
<rect x="23" y="30" width="1" height="2" fill="#564215" />
<rect x="39" y="30" width="1" height="2" fill="#564215" />
<rect x="55" y="30" width="1" height="2" fill="#564215" />
<rect x="71" y="30" width="1" height="2" fill="#564215" />
<rect x="87" y="30" width="1" height="2" fill="#564215" />
<rect x="103" y="30" width="1" height="2" fill="#FFFFFF" />
</svg>